<svg width="250" height="250" viewBox="0 0 250 250" fill="none" xmlns="http://www.w3.org/2000/svg">
        <mask id="mask0_1_247" style="mask-type:alpha" maskUnits="userSpaceOnUse" x="0" y="0" width="250" height="250">
            <path d="M0 0.393311H250V250.393H0V0.393311Z" fill="#D9D9D9"/>
        </mask>
        <g mask="url(#mask0_1_247)">
            <path d="M63.2083 107.612L83.5208 116.206C85.9513 111.345 88.4687 106.657 91.0728 102.143C93.677 97.6296 96.5416 93.1157 99.6666 88.6018L85.0832 85.7372L63.2083 107.612ZM100.187 129.227L129.875 158.654C137.167 155.876 144.979 151.623 153.312 145.893C161.646 140.164 169.458 133.654 176.75 126.362C188.903 114.209 198.41 100.713 205.271 85.8726C212.125 71.0254 215.118 57.3518 214.25 44.8518C201.75 43.9837 188.035 46.9768 173.104 53.8309C158.174 60.6921 144.632 70.199 132.479 82.3518C125.187 89.6434 118.677 97.456 112.948 105.789C107.219 114.123 102.965 121.935 100.187 129.227ZM151.489 195.893L173.364 174.018L170.5 159.435C165.986 162.56 161.472 165.38 156.958 167.893C152.444 170.414 147.757 172.89 142.896 175.321L151.489 195.893ZM218.506 24.4157C227.184 24.7533 234.086 31.6575 234.433 40.3347C235.069 56.2789 232.554 71.8888 226.885 87.1643C219.503 107.046 206.785 126.015 188.729 144.071L193.937 169.852C194.632 173.324 194.458 176.709 193.417 180.008C192.375 183.307 190.639 186.171 188.208 188.602L159.109 217.701C152.098 224.712 140.221 222.414 136.331 213.293L122.583 181.05L79.9679 138.434C78.7024 137.169 77.2059 136.158 75.5596 135.456L45.7479 122.744C36.6434 118.862 34.3323 107.016 41.3101 99.9961L70.2395 70.8934C72.67 68.4629 75.5798 66.7268 78.9687 65.6851C82.3506 64.6435 85.7777 64.4698 89.2499 65.1643L115.031 70.3726C133.087 52.3171 152.01 39.5566 171.802 32.0914C187.011 26.3546 202.579 23.796 218.506 24.4157ZM45.2395 169.591C51.3159 163.515 58.736 160.432 67.4999 160.341C76.2707 160.258 83.6944 163.255 89.7707 169.331C95.8471 175.407 98.8402 182.827 98.7499 191.591C98.6666 200.362 95.5867 207.786 89.5103 213.862C85.1701 218.202 77.9235 221.935 67.7708 225.06C60.2182 227.383 50.5319 229.514 38.7119 231.454C32.189 232.524 26.5778 226.913 27.648 220.39C29.5873 208.57 31.7185 198.883 34.0416 191.331C37.1666 181.178 40.8992 173.932 45.2395 169.591ZM60.0832 184.175C58.3471 185.911 56.611 189.081 54.8749 193.685C53.1388 198.282 51.9235 202.925 51.2291 207.612C55.9166 206.918 60.5624 205.748 65.1666 204.102C69.7638 202.449 72.9305 200.755 74.6666 199.018C76.7499 196.935 77.8784 194.418 78.052 191.466C78.2256 188.515 77.2707 185.998 75.1874 183.914C73.1041 181.831 70.5867 180.831 67.6353 180.914C64.6839 181.005 62.1666 182.091 60.0832 184.175Z" fill="#FFFFFF"/>
        </g>
        <rect x="120" y="98.3933" width="41" height="41" rx="20.5" fill="#FFFFFF"/>
        <rect x="161" y="65.3933" width="33" height="33" rx="16.5" fill="#FFFFFF"/>
    </svg>