<svg width="308" height="308" viewBox="0 0 308 308" fill="none" xmlns="http://www.w3.org/2000/svg">
<g filter="url(#filter0_f_1_19)">
<path d="M86.2083 133.612L106.521 142.206C108.951 137.345 111.469 132.657 114.073 128.143C116.677 123.63 119.542 119.116 122.667 114.602L108.083 111.737L86.2083 133.612ZM123.187 155.227L152.875 184.654C160.167 181.876 167.979 177.623 176.312 171.893C184.646 166.164 192.458 159.654 199.75 152.362C211.903 140.209 221.41 126.713 228.271 111.873C235.125 97.0254 238.118 83.3518 237.25 70.8518C224.75 69.9837 211.035 72.9768 196.104 79.8309C181.174 86.6921 167.632 96.199 155.479 108.352C148.187 115.643 141.677 123.456 135.948 131.789C130.219 140.123 125.965 147.935 123.187 155.227ZM174.489 221.893L196.364 200.018L193.5 185.435C188.986 188.56 184.472 191.38 179.958 193.893C175.444 196.414 170.757 198.89 165.896 201.321L174.489 221.893ZM241.506 50.4157C250.184 50.7533 257.086 57.6575 257.433 66.3347C258.069 82.2789 255.554 97.8888 249.885 113.164C242.503 133.046 229.785 152.015 211.729 170.071L216.937 195.852C217.632 199.324 217.458 202.709 216.417 206.008C215.375 209.307 213.639 212.171 211.208 214.602L182.109 243.701C175.098 250.712 163.221 248.414 159.331 239.293L145.583 207.05L102.968 164.434C101.702 163.169 100.206 162.158 98.5596 161.456L68.7479 148.744C59.6434 144.862 57.3323 133.016 64.3101 125.996L93.2395 96.8934C95.67 94.4629 98.5798 92.7268 101.969 91.6851C105.351 90.6435 108.778 90.4698 112.25 91.1643L138.031 96.3726C156.087 78.3171 175.01 65.5566 194.802 58.0914C210.011 52.3546 225.579 49.796 241.506 50.4157ZM68.2395 195.591C74.3159 189.515 81.736 186.432 90.4999 186.341C99.2707 186.258 106.694 189.255 112.771 195.331C118.847 201.407 121.84 208.827 121.75 217.591C121.667 226.362 118.587 233.786 112.51 239.862C108.17 244.202 100.923 247.935 90.7708 251.06C83.2182 253.383 73.5319 255.514 61.7119 257.454C55.189 258.524 49.5778 252.913 50.648 246.39C52.5873 234.57 54.7185 224.883 57.0416 217.331C60.1666 207.178 63.8992 199.932 68.2395 195.591ZM83.0832 210.175C81.3471 211.911 79.611 215.081 77.8749 219.685C76.1388 224.282 74.9235 228.925 74.2291 233.612C78.9166 232.918 83.5624 231.748 88.1666 230.102C92.7638 228.449 95.9305 226.755 97.6666 225.018C99.7499 222.935 100.878 220.418 101.052 217.466C101.226 214.515 100.271 211.998 98.1874 209.914C96.1041 207.831 93.5867 206.831 90.6353 206.914C87.6839 207.005 85.1666 208.091 83.0832 210.175Z" fill="#11D4B1" fill-opacity="0.4"/>
<path d="M184 144.893C184 133.571 174.822 124.393 163.5 124.393C152.178 124.393 143 133.571 143 144.893C143 156.215 152.178 165.393 163.5 165.393C174.822 165.393 184 156.215 184 144.893Z" fill="#11D4B1" fill-opacity="0.4"/>
<path d="M217 107.893C217 98.7806 209.613 91.3933 200.5 91.3933C191.387 91.3933 184 98.7806 184 107.893C184 117.006 191.387 124.393 200.5 124.393C209.613 124.393 217 117.006 217 107.893Z" fill="#11D4B1" fill-opacity="0.4"/>
</g>
<path d="M92.0292 132.92L110.428 140.733C112.63 136.314 114.91 132.052 117.269 127.948C119.628 123.845 122.222 119.742 125.053 115.638L111.843 113.034L92.0292 132.92ZM125.524 152.57L152.416 179.322C159.021 176.796 166.097 172.93 173.645 167.721C181.194 162.513 188.27 156.595 194.875 149.965C205.883 138.917 214.495 126.648 220.709 113.157C226.918 99.6594 229.629 87.2289 228.842 75.8653C217.52 75.0761 205.097 77.7971 191.572 84.0281C178.049 90.2655 165.783 98.9082 154.774 109.956C148.169 116.585 142.273 123.687 137.083 131.263C131.894 138.839 128.041 145.941 125.524 152.57ZM171.994 213.175L191.808 193.289L189.214 180.032C185.125 182.873 181.036 185.436 176.947 187.721C172.859 190.013 168.613 192.264 164.21 194.474L171.994 213.175ZM232.697 57.287C240.558 57.5939 246.81 63.8705 247.124 71.7588C247.7 86.2535 245.422 100.444 240.287 114.331C233.601 132.405 222.081 149.65 205.726 166.065L210.443 189.502C211.072 192.658 210.915 195.735 209.972 198.735C209.028 201.734 207.456 204.337 205.254 206.547L178.896 233.001C172.545 239.375 161.787 237.285 158.264 228.994L145.811 199.682L107.21 160.94C106.064 159.79 104.708 158.871 103.217 158.233L76.2137 146.676C67.9668 143.147 65.8735 132.378 72.1939 125.996L98.3981 99.5394C100.6 97.3299 103.235 95.7516 106.305 94.8046C109.368 93.8577 112.473 93.6998 115.618 94.3312L138.97 99.066C155.325 82.6519 172.466 71.0514 190.393 64.2649C204.169 59.0496 218.271 56.7236 232.697 57.287ZM75.7532 189.265C81.2571 183.741 87.9783 180.938 95.9166 180.855C103.861 180.78 110.585 183.505 116.089 189.028C121.593 194.552 124.305 201.297 124.223 209.265C124.147 217.238 121.358 223.987 115.854 229.511C111.922 233.456 105.358 236.85 96.1619 239.691C89.3208 241.803 80.547 243.74 69.8405 245.504C63.9321 246.476 58.8495 241.375 59.8188 235.445C61.5754 224.7 63.5059 215.894 65.6101 209.028C68.4408 199.798 71.8217 193.211 75.7532 189.265ZM89.1985 202.523C87.626 204.101 86.0534 206.983 84.4809 211.168C82.9083 215.347 81.8075 219.568 81.1785 223.829C85.4244 223.198 89.6326 222.135 93.8031 220.638C97.9672 219.135 100.836 217.595 102.408 216.016C104.295 214.123 105.317 211.835 105.475 209.151C105.632 206.468 104.767 204.18 102.88 202.285C100.993 200.392 98.7126 199.483 96.0392 199.558C93.3658 199.641 91.0857 200.628 89.1985 202.523Z" fill="#11D4B1"/>
<path d="M180.609 143.176C180.609 132.883 172.295 124.539 162.04 124.539C151.785 124.539 143.471 132.883 143.471 143.176C143.471 153.468 151.785 161.812 162.04 161.812C172.295 161.812 180.609 153.468 180.609 143.176Z" fill="#11D4B1"/>
<path d="M210.5 109.539C210.5 101.255 203.809 94.5394 195.554 94.5394C187.3 94.5394 180.609 101.255 180.609 109.539C180.609 117.824 187.3 124.539 195.554 124.539C203.809 124.539 210.5 117.824 210.5 109.539Z" fill="#11D4B1"/>
<defs>
<filter id="filter0_f_1_19" x="-27" y="-24" width="350" height="350" filterUnits="userSpaceOnUse" color-interpolation-filters="sRGB">
<feFlood flood-opacity="0" result="BackgroundImageFix"/>
<feBlend mode="normal" in="SourceGraphic" in2="BackgroundImageFix" result="shape"/>
<feGaussianBlur stdDeviation="25" result="effect1_foregroundBlur_1_19"/>
</filter>
</defs>
</svg>
