<?xml version="1.0" encoding="UTF-8"?>
<svg version="1.1" xmlns="http://www.w3.org/2000/svg" width="360" height="264">
<path d="M0 0 C1.08066742 0.00007553 2.16133484 0.00015106 3.27474976 0.00022888 C4.42496613 0.00539017 5.5751825 0.01055145 6.76025391 0.01586914 C7.95035065 0.01728409 9.14044739 0.01869904 10.36660767 0.02015686 C14.15670313 0.02574119 17.94673889 0.03829088 21.73681641 0.05102539 C24.3110343 0.05604241 26.88525313 0.06060497 29.45947266 0.06469727 C35.76027418 0.0757055 42.06104102 0.09242808 48.36181641 0.11352539 C48.36181641 0.77352539 48.36181641 1.43352539 48.36181641 2.11352539 C49.24119873 2.0705835 50.12058105 2.0276416 51.02661133 1.98339844 C54.50171231 2.11898359 56.57985331 2.77272849 59.72509766 4.19555664 C60.69382812 4.63319336 61.66255859 5.07083008 62.66064453 5.52172852 C63.65515625 5.98514648 64.64966797 6.44856445 65.67431641 6.92602539 C66.68816406 7.3778418 67.70201172 7.8296582 68.74658203 8.29516602 C74.31853685 10.85162218 74.31853685 10.85162218 76.36181641 12.11352539 C76.69181641 13.10352539 77.02181641 14.09352539 77.36181641 15.11352539 C78.06306641 15.19602539 78.76431641 15.27852539 79.48681641 15.36352539 C83.04709179 16.29229288 85.43212193 17.91625453 88.36181641 20.11352539 C88.69181641 20.77352539 89.02181641 21.43352539 89.36181641 22.11352539 C90.35181641 22.44352539 91.34181641 22.77352539 92.36181641 23.11352539 C92.67119141 23.77352539 92.98056641 24.43352539 93.29931641 25.11352539 C93.64994141 25.77352539 94.00056641 26.43352539 94.36181641 27.11352539 C94.96767578 27.25145508 95.57353516 27.38938477 96.19775391 27.53149414 C98.91310765 28.26179686 100.08527236 29.43641895 102.04931641 31.42602539 C102.65130859 32.0202832 103.25330078 32.61454102 103.87353516 33.22680664 C105.36181641 35.11352539 105.36181641 35.11352539 105.80322266 36.96508789 C106.651222 40.22662383 108.62810121 42.47304922 110.61181641 45.17602539 C117.90706546 55.35173985 121.41641278 64.64270979 121.96728516 77.12915039 C121.79827199 80.93416511 121.79827199 80.93416511 123.36181641 84.11352539 C124.94568703 84.1076592 126.52949232 84.05874687 128.11181641 83.98852539 C132.38618029 83.95188799 135.02839832 84.19678456 138.36181641 87.11352539 C139.48681641 89.05102539 139.48681641 89.05102539 140.36181641 91.11352539 C140.85681641 91.77352539 141.35181641 92.43352539 141.86181641 93.11352539 C143.30871829 95.0427279 144.34884167 96.93173365 145.36181641 99.11352539 C145.69181641 99.11352539 146.02181641 99.11352539 146.36181641 99.11352539 C146.36181641 102.08352539 146.36181641 105.05352539 146.36181641 108.11352539 C152.30181641 108.11352539 158.24181641 108.11352539 164.36181641 108.11352539 C164.69181641 107.45352539 165.02181641 106.79352539 165.36181641 106.11352539 C166.50650391 106.20633789 166.50650391 106.20633789 167.67431641 106.30102539 C170.36120411 106.4098982 170.36120411 106.4098982 171.70166016 104.76586914 C176.6344244 99.85631791 184.55553779 97.5672773 191.36181641 97.11352539 C191.36181641 96.45352539 191.36181641 95.79352539 191.36181641 95.11352539 C192.72306641 94.89696289 192.72306641 94.89696289 194.11181641 94.67602539 C197.17965103 94.14505401 200.12207111 93.46773833 203.11181641 92.61352539 C205.77761625 92.02112542 208.45471257 91.70218493 211.16650391 91.39477539 C212.77742179 91.18839445 214.37929064 90.90789811 215.97119141 90.58618164 C220.5733263 89.94463979 225.09714551 90.00800419 229.73681641 90.05102539 C230.66365234 90.05553711 231.59048828 90.06004883 232.54541016 90.06469727 C234.81761349 90.07640965 237.08968028 90.09281167 239.36181641 90.11352539 C239.36181641 90.77352539 239.36181641 91.43352539 239.36181641 92.11352539 C240.28994141 92.21665039 241.21806641 92.31977539 242.17431641 92.42602539 C247.15019342 93.49925377 249.56283366 97.23240611 252.41650391 101.27368164 C253.88530193 104.13237532 253.3084525 106.13838339 252.36181641 109.11352539 C251.36181641 112.11352539 251.36181641 112.11352539 248.36181641 114.11352539 C245.22509766 114.30883789 245.22509766 114.30883789 241.67431641 114.23852539 C240.49482422 114.22047852 239.31533203 114.20243164 238.10009766 114.18383789 C237.19646484 114.16063477 236.29283203 114.13743164 235.36181641 114.11352539 C235.36181641 113.45352539 235.36181641 112.79352539 235.36181641 112.11352539 C214.10615789 108.41037446 214.10615789 108.41037446 194.36181641 114.11352539 C188.75644603 116.44542986 183.35040908 118.13863821 177.36181641 119.11352539 C175.33265871 120.05295025 173.32306328 121.03950924 171.36181641 122.11352539 C171.36181641 122.77352539 171.36181641 123.43352539 171.36181641 124.11352539 C162.76107552 128.22309441 155.25443746 129.58861349 145.73681641 129.55102539 C144.29701416 129.5471582 144.29701416 129.5471582 142.828125 129.54321289 C138.35814034 129.4481574 135.33501486 129.24989743 131.36181641 127.11352539 C129.22894267 126.87431584 129.22894267 126.87431584 127.11181641 126.98852539 C125.87431641 127.02977539 124.63681641 127.07102539 123.36181641 127.11352539 C123.03181641 128.10352539 122.70181641 129.09352539 122.36181641 130.11352539 C120.29931641 131.30102539 120.29931641 131.30102539 118.36181641 132.11352539 C118.36181641 133.43352539 118.36181641 134.75352539 118.36181641 136.11352539 C119.26931641 136.40227539 120.17681641 136.69102539 121.11181641 136.98852539 C124.36181641 138.11352539 124.36181641 138.11352539 126.09619141 139.13696289 C129.32781333 140.52990337 132.36142355 140.62924713 135.86181641 140.86352539 C137.82634766 141.01047852 137.82634766 141.01047852 139.83056641 141.16040039 C143.30665753 141.11425759 144.48859303 140.82809657 147.36181641 139.11352539 C153.92215614 136.7862295 160.39298229 134.76569179 167.36181641 134.28930664 C169.43233069 134.14955663 169.43233069 134.14955663 171.70166016 133.60571289 C181.19651719 131.8489552 191.00179797 133.20246351 200.36181641 135.11352539 C201.18037109 135.26047852 201.99892578 135.40743164 202.84228516 135.55883789 C205.69416627 136.18669389 208.36298082 137.06664508 211.11181641 138.05102539 C212.55814453 138.55956055 212.55814453 138.55956055 214.03369141 139.07836914 C216.36181641 140.11352539 216.36181641 140.11352539 217.36181641 142.11352539 C220.63737248 142.58353572 220.63737248 142.58353572 224.42431641 142.73852539 C225.71466797 142.81329102 227.00501953 142.88805664 228.33447266 142.96508789 C229.83300781 143.03856445 229.83300781 143.03856445 231.36181641 143.11352539 C231.69181641 142.45352539 232.02181641 141.79352539 232.36181641 141.11352539 C235.16259766 140.76977539 235.16259766 140.76977539 238.67431641 140.61352539 C242.76718418 140.43019425 245.82942257 140.27657149 249.36181641 138.11352539 C249.36181641 137.78352539 249.36181641 137.45352539 249.36181641 137.11352539 C256.62181641 137.11352539 263.88181641 137.11352539 271.36181641 137.11352539 C273.3925944 143.20585937 274.87626127 147.78174669 272.11181641 153.86352539 C267.06263608 160.35532867 267.06263608 160.35532867 262.36181641 161.11352539 C261.37181641 161.44352539 260.38181641 161.77352539 259.36181641 162.11352539 C257.48736899 162.2079515 255.60973328 162.24424172 253.73291016 162.24633789 C252.61464844 162.24762695 251.49638672 162.24891602 250.34423828 162.25024414 C249.17441406 162.24637695 248.00458984 162.24250977 246.79931641 162.23852539 C245.08518555 162.24432617 245.08518555 162.24432617 243.33642578 162.25024414 C237.3152148 162.24335882 231.41198188 162.0453119 225.4309082 161.33398438 C222.73510886 161.04675053 220.06973317 161.04226442 217.36181641 161.11352539 C217.36181641 160.45352539 217.36181641 159.79352539 217.36181641 159.11352539 C202.11315313 153.80405107 188.35949653 153.80052062 172.36181641 155.11352539 C172.36181641 155.77352539 172.36181641 156.43352539 172.36181641 157.11352539 C163.00261063 161.23694597 163.00261063 161.23694597 157.98681641 161.73852539 C154.81020172 162.0671407 153.02011366 162.45208961 150.36181641 164.11352539 C150.36181641 164.44352539 150.36181641 164.77352539 150.36181641 165.11352539 C146.07884109 166.16971542 141.93195995 166.23054632 137.54931641 166.17602539 C136.85644531 166.17151367 136.16357422 166.16700195 135.44970703 166.16235352 C133.75370572 166.15065695 132.05774937 166.13272463 130.36181641 166.11352539 C131.36446533 166.19916748 132.36711426 166.28480957 133.40014648 166.37304688 C137.17051715 166.69517613 140.94085406 167.01769891 144.71118164 167.34033203 C146.3335685 167.4791089 147.95596412 167.61778336 149.57836914 167.75634766 C154.17161119 168.14867823 158.7646845 168.54287621 163.35748291 168.94036865 C165.14057021 169.09441167 166.92379159 169.24690088 168.70703125 169.39916992 C176.73371061 170.10090357 183.8360853 170.93860914 191.23681641 174.23852539 C191.93500488 174.54693359 192.63319336 174.8553418 193.35253906 175.1730957 C200.06913382 178.25146999 206.19964344 181.87026594 210.36181641 188.11352539 C211.59462088 191.81193882 211.8128571 195.26412638 211.36181641 199.11352539 C209.92761032 201.59079044 208.38111038 203.09423142 206.36181641 205.11352539 C201.25862 205.55783258 197.8512371 204.80499104 193.27197266 202.59399414 C192.15757812 202.06612305 191.04318359 201.53825195 189.89501953 200.99438477 C188.7496875 200.43557617 187.60435547 199.87676758 186.42431641 199.30102539 C184.14559139 198.20862701 181.86567013 197.11871997 179.58447266 196.03149414 C178.51600098 195.52150879 177.4475293 195.01152344 176.34667969 194.48608398 C172.73840995 192.82685836 169.10913873 191.42393872 165.36181641 190.11352539 C165.36181641 189.45352539 165.36181641 188.79352539 165.36181641 188.11352539 C160.3806688 187.21947326 155.392024 186.63890263 150.36181641 186.11352539 C150.36181641 185.45352539 150.36181641 184.79352539 150.36181641 184.11352539 C135.89026049 181.50771468 122.06773957 181.62776996 107.48681641 183.17602539 C96.48690755 184.32492901 87.30575453 184.3654385 76.93212891 180.05102539 C74.34732232 179.00122426 74.34732232 179.00122426 71.40478516 178.73461914 C67.67027494 177.97237636 65.57637427 176.46598845 62.54931641 174.17602539 C61.59412109 173.46575195 60.63892578 172.75547852 59.65478516 172.02368164 C57.36181641 170.11352539 57.36181641 170.11352539 56.36181641 168.11352539 C55.37181641 167.78352539 54.38181641 167.45352539 53.36181641 167.11352539 C53.03181641 166.12352539 52.70181641 165.13352539 52.36181641 164.11352539 C51.72501953 163.9755957 51.08822266 163.83766602 50.43212891 163.69555664 C48.36181641 163.11352539 48.36181641 163.11352539 47.22900391 161.18774414 C46.90158203 160.40012695 46.57416016 159.61250977 46.23681641 158.80102539 C44.16597674 154.71127934 42.46196944 153.29237804 38.17431641 151.67602539 C37.31451172 151.40918945 36.45470703 151.14235352 35.56884766 150.86743164 C33.36181641 150.11352539 33.36181641 150.11352539 31.36181641 148.11352539 C29.10021865 148.11352539 26.83592912 148.24496065 24.57666016 148.33227539 C23.40683594 148.37739258 22.23701172 148.42250977 21.03173828 148.46899414 C19.18418945 148.54053711 19.18418945 148.54053711 17.29931641 148.61352539 C15.4459668 148.68506836 15.4459668 148.68506836 13.55517578 148.75805664 C10.49071602 148.87637555 7.42626327 148.99487314 4.36181641 149.11352539 C5.54984299 152.67760513 6.89650835 153.32630767 10.10791016 155.06274414 C14.40350627 157.06537041 18.87844526 158.58934135 23.36181641 160.11352539 C23.36181641 160.77352539 23.36181641 161.43352539 23.36181641 162.11352539 C23.97927734 162.18829102 24.59673828 162.26305664 25.23291016 162.34008789 C31.96632743 163.38545861 37.24890459 165.50749707 42.36181641 170.11352539 C43.06611785 171.42736773 43.73460507 172.76118366 44.36181641 174.11352539 C45.27016104 175.16038592 46.2096543 176.1808199 47.17431641 177.17602539 C52.60263752 183.39680214 55.07219088 190.88717178 57.23681641 198.73852539 C59.09790319 205.06471958 61.92170595 209.3066232 66.36181641 214.11352539 C66.89291016 214.73485352 67.42400391 215.35618164 67.97119141 215.99633789 C70.31649547 218.59551507 71.70004428 220.02720729 75.23681641 220.48852539 C75.93806641 220.36477539 76.63931641 220.24102539 77.36181641 220.11352539 C77.36181641 220.77352539 77.36181641 221.43352539 77.36181641 222.11352539 C84.11733864 222.42305372 84.11733864 222.42305372 90.36181641 220.11352539 C90.69181641 219.12352539 91.02181641 218.13352539 91.36181641 217.11352539 C92.35181641 216.78352539 93.34181641 216.45352539 94.36181641 216.11352539 C95.00119141 215.28852539 95.64056641 214.46352539 96.29931641 213.61352539 C98.36181641 211.11352539 98.36181641 211.11352539 100.29931641 210.67602539 C104.30817719 209.58269972 106.67525844 205.12963118 108.92431641 201.80102539 C110.66362043 199.75923371 111.82049075 199.70650138 114.36181641 199.11352539 C114.69181641 198.12352539 115.02181641 197.13352539 115.36181641 196.11352539 C116.35181641 195.78352539 117.34181641 195.45352539 118.36181641 195.11352539 C118.81556641 194.61852539 119.26931641 194.12352539 119.73681641 193.61352539 C121.84185287 191.67041481 123.57793253 191.60070507 126.36181641 191.11352539 C127.35181641 190.45352539 128.34181641 189.79352539 129.36181641 189.11352539 C131.99731445 188.79467773 131.99731445 188.79467773 135.12353516 188.69946289 C136.24179688 188.66079102 137.36005859 188.62211914 138.51220703 188.58227539 C140.26307617 188.53586914 140.26307617 188.53586914 142.04931641 188.48852539 C143.22816406 188.44985352 144.40701172 188.41118164 145.62158203 188.37133789 C148.53483618 188.27698148 151.44808248 188.19139378 154.36181641 188.11352539 C154.36181641 188.77352539 154.36181641 189.43352539 154.36181641 190.11352539 C156.67181641 190.11352539 158.98181641 190.11352539 161.36181641 190.11352539 C161.36181641 190.77352539 161.36181641 191.43352539 161.36181641 192.11352539 C162.75400391 192.26821289 162.75400391 192.26821289 164.17431641 192.42602539 C167.54585742 193.15322051 168.18782091 193.64307596 170.36181641 196.11352539 C171.38275391 196.54665039 171.38275391 196.54665039 172.42431641 196.98852539 C174.36181641 198.11352539 174.36181641 198.11352539 175.61181641 200.23852539 C177.04877178 205.74685432 177.25747948 210.04336802 174.42431641 214.98852539 C173.74369141 216.01977539 173.06306641 217.05102539 172.36181641 218.11352539 C172.03181641 218.77352539 171.70181641 219.43352539 171.36181641 220.11352539 C161.6439178 219.93386676 152.83457949 218.24299547 143.47241211 215.75341797 C142.6083374 215.52936279 141.7442627 215.30530762 140.85400391 215.07446289 C140.08427246 214.86611816 139.31454102 214.65777344 138.52148438 214.44311523 C136.15793833 214.08241128 134.61748299 214.37872006 132.36181641 215.11352539 C132.36181641 215.44352539 132.36181641 215.77352539 132.36181641 216.11352539 C131.16556641 216.36102539 129.96931641 216.60852539 128.73681641 216.86352539 C124.65940765 217.86664011 121.77766687 219.65093552 118.36181641 222.11352539 C117.37181641 222.44352539 116.38181641 222.77352539 115.36181641 223.11352539 C114.70181641 224.10352539 114.04181641 225.09352539 113.36181641 226.11352539 C112.37181641 226.44352539 111.38181641 226.77352539 110.36181641 227.11352539 C109.70181641 228.10352539 109.04181641 229.09352539 108.36181641 230.11352539 C107.37181641 230.44352539 106.38181641 230.77352539 105.36181641 231.11352539 C105.03181641 231.77352539 104.70181641 232.43352539 104.36181641 233.11352539 C103.37181641 233.44352539 102.38181641 233.77352539 101.36181641 234.11352539 C100.94931641 234.54665039 100.53681641 234.97977539 100.11181641 235.42602539 C92.36101843 242.90000916 82.89994976 242.35661023 72.78369141 242.26977539 C62.2917738 241.79069239 62.2917738 241.79069239 58.81103516 238.76586914 C56.7683223 236.43684612 54.81170649 234.04385846 52.86181641 231.63696289 C51.33007924 229.85064995 51.33007924 229.85064995 48.36181641 229.11352539 C47.98044037 227.79313105 47.66204678 226.45470048 47.36181641 225.11352539 C46.21159833 222.66967052 45.03095379 220.2655521 43.79931641 217.86352539 C43.07501692 216.43791742 42.35106927 215.01213064 41.62744141 213.58618164 C41.25425781 212.85286621 40.88107422 212.11955078 40.49658203 211.36401367 C39.3656333 209.12109512 38.25857216 206.86791634 37.15869141 204.60961914 C36.80492432 203.88742188 36.45115723 203.16522461 36.08666992 202.42114258 C35.40825954 201.0346244 34.73408663 199.64602277 34.06469727 198.25512695 C32.06177812 194.1879801 30.46737385 191.16630411 26.36181641 189.11352539 C25.73681641 187.05102539 25.73681641 187.05102539 25.36181641 185.11352539 C24.67732422 184.99106445 23.99283203 184.86860352 23.28759766 184.74243164 C19.96988951 184.02927942 16.78745104 183.06498674 13.54931641 182.05102539 C12.38787109 181.68879883 11.22642578 181.32657227 10.02978516 180.95336914 C9.14935547 180.6762207 8.26892578 180.39907227 7.36181641 180.11352539 C7.36181641 179.45352539 7.36181641 178.79352539 7.36181641 178.11352539 C3.73181641 178.11352539 0.10181641 178.11352539 -3.63818359 178.11352539 C-3.63818359 177.45352539 -3.63818359 176.79352539 -3.63818359 176.11352539 C-4.22986328 176.0271582 -4.82154297 175.94079102 -5.43115234 175.85180664 C-11.04215582 174.8540915 -14.07001376 173.8084857 -17.63818359 169.11352539 C-26.22594131 155.64217155 -26.14348498 146.75790762 -24.63818359 131.11352539 C-26.53631041 130.04653804 -26.53631041 130.04653804 -28.38818359 129.80102539 C-32.13219928 128.6570206 -35.68335131 126.74235693 -37.70068359 123.30102539 C-38.01005859 122.57915039 -38.31943359 121.85727539 -38.63818359 121.11352539 C-39.48081207 119.97985747 -40.33637016 118.85574872 -41.20068359 117.73852539 C-43.50856284 114.5198214 -44.63818359 112.17799984 -44.63818359 108.11352539 C-43.31370552 104.39237271 -41.82715446 101.39698169 -39.63818359 98.11352539 C-40.73364476 96.62789997 -41.83987182 95.1502083 -42.95068359 93.67602539 C-43.56556641 92.85231445 -44.18044922 92.02860352 -44.81396484 91.17993164 C-46.55116056 88.86368903 -46.55116056 88.86368903 -49.63818359 88.11352539 C-49.76193359 87.14286133 -49.76193359 87.14286133 -49.88818359 86.15258789 C-50.91795983 81.97984877 -52.75860327 78.33969347 -54.63818359 74.48852539 C-55.36879861 72.97620341 -56.0980233 71.46320876 -56.82568359 69.94946289 C-57.14923828 69.28479004 -57.47279297 68.62011719 -57.80615234 67.93530273 C-60.49243313 62.05354592 -59.94199064 55.90337839 -60.01318359 49.55102539 C-60.06925781 47.69380859 -60.06925781 47.69380859 -60.12646484 45.79907227 C-60.23674215 34.22608136 -56.45012985 27.13475151 -49.63818359 18.11352539 C-48.97818359 17.12352539 -48.31818359 16.13352539 -47.63818359 15.11352539 C-46.64818359 14.78352539 -45.65818359 14.45352539 -44.63818359 14.11352539 C-44.01943359 13.49477539 -43.40068359 12.87602539 -42.76318359 12.23852539 C-38.05269312 7.52803492 -34.07487446 6.65900767 -27.63818359 6.11352539 C-27.63818359 5.45352539 -27.63818359 4.79352539 -27.63818359 4.11352539 C-21.84416001 1.63037242 -17.90656461 0.91131955 -11.63818359 1.11352539 C-10.68454926 0.95344498 -9.73091492 0.79336456 -8.74838257 0.62843323 C-5.76166128 0.13396769 -3.02279332 -0.00709576 0 0 Z M146.36181641 109.11352539 C146.36181641 109.44352539 146.36181641 109.77352539 146.36181641 110.11352539 C150.98181641 110.11352539 155.60181641 110.11352539 160.36181641 110.11352539 C160.36181641 109.78352539 160.36181641 109.45352539 160.36181641 109.11352539 C155.74181641 109.11352539 151.12181641 109.11352539 146.36181641 109.11352539 Z M-23.63818359 130.11352539 C-22.63818359 133.11352539 -22.63818359 133.11352539 -22.63818359 133.11352539 Z M79.36181641 141.11352539 C79.36181641 141.44352539 79.36181641 141.77352539 79.36181641 142.11352539 C82.33181641 142.11352539 85.30181641 142.11352539 88.36181641 142.11352539 C88.36181641 141.78352539 88.36181641 141.45352539 88.36181641 141.11352539 C85.39181641 141.11352539 82.42181641 141.11352539 79.36181641 141.11352539 Z M74.36181641 144.11352539 C73.02848307 144.78019206 71.69514974 145.44685872 70.36181641 146.11352539 C69.70181641 146.77352539 69.04181641 147.43352539 68.36181641 148.11352539 C68.98715015 150.63716527 68.98715015 150.63716527 70.36181641 153.11352539 C72.90956947 154.00738703 72.90956947 154.00738703 75.36181641 154.11352539 C75.69181641 155.10352539 76.02181641 156.09352539 76.36181641 157.11352539 C78.67181641 157.44352539 80.98181641 157.77352539 83.36181641 158.11352539 C83.36181641 158.77352539 83.36181641 159.43352539 83.36181641 160.11352539 C89.07365585 161.44707468 94.93261759 161.78180016 100.76416016 162.27563477 C102.01132813 162.39455078 102.01132813 162.39455078 103.28369141 162.51586914 C104.04262695 162.58281982 104.8015625 162.64977051 105.58349609 162.71875 C106.46376465 162.91416382 106.46376465 162.91416382 107.36181641 163.11352539 C107.85681641 164.10352539 107.85681641 164.10352539 108.36181641 165.11352539 C115.92589174 165.3194226 115.92589174 165.3194226 123.36181641 164.11352539 C120.93399118 160.94679683 119.05769566 159.88773673 115.23681641 159.23852539 C109.61496061 158.19433327 104.83929528 155.65149547 100.36181641 152.11352539 C99.65747546 150.79970423 98.98193526 149.46913405 98.36181641 148.11352539 C97.70181641 147.94852539 97.04181641 147.78352539 96.36181641 147.61352539 C95.70181641 147.44852539 95.04181641 147.28352539 94.36181641 147.11352539 C93.23681641 145.11352539 93.23681641 145.11352539 92.36181641 143.11352539 C89.39140191 141.62831814 86.66417193 141.9429432 83.36181641 141.92602539 C82.10369141 141.9118457 80.84556641 141.89766602 79.54931641 141.88305664 C76.26827041 141.77088992 76.26827041 141.77088992 74.36181641 144.11352539 Z M130.36181641 142.11352539 C130.36181641 142.44352539 130.36181641 142.77352539 130.36181641 143.11352539 C134.32181641 143.11352539 138.28181641 143.11352539 142.36181641 143.11352539 C142.36181641 142.78352539 142.36181641 142.45352539 142.36181641 142.11352539 C138.40181641 142.11352539 134.44181641 142.11352539 130.36181641 142.11352539 Z M2.36181641 145.11352539 C3.36181641 149.11352539 3.36181641 149.11352539 3.36181641 149.11352539 Z M181.36181641 152.11352539 C181.36181641 152.44352539 181.36181641 152.77352539 181.36181641 153.11352539 C184.99181641 153.11352539 188.62181641 153.11352539 192.36181641 153.11352539 C192.36181641 152.78352539 192.36181641 152.45352539 192.36181641 152.11352539 C188.73181641 152.11352539 185.10181641 152.11352539 181.36181641 152.11352539 Z M175.36181641 153.11352539 C175.36181641 153.44352539 175.36181641 153.77352539 175.36181641 154.11352539 C177.01181641 154.11352539 178.66181641 154.11352539 180.36181641 154.11352539 C180.36181641 153.78352539 180.36181641 153.45352539 180.36181641 153.11352539 C178.71181641 153.11352539 177.06181641 153.11352539 175.36181641 153.11352539 Z M93.36181641 162.11352539 C93.36181641 162.44352539 93.36181641 162.77352539 93.36181641 163.11352539 C95.34181641 163.11352539 97.32181641 163.11352539 99.36181641 163.11352539 C99.36181641 162.78352539 99.36181641 162.45352539 99.36181641 162.11352539 C97.38181641 162.11352539 95.40181641 162.11352539 93.36181641 162.11352539 Z M100.36181641 163.11352539 C100.36181641 163.44352539 100.36181641 163.77352539 100.36181641 164.11352539 C102.67181641 164.11352539 104.98181641 164.11352539 107.36181641 164.11352539 C107.36181641 163.78352539 107.36181641 163.45352539 107.36181641 163.11352539 C105.05181641 163.11352539 102.74181641 163.11352539 100.36181641 163.11352539 Z M127.36181641 163.11352539 C127.36181641 163.44352539 127.36181641 163.77352539 127.36181641 164.11352539 C129.34181641 164.11352539 131.32181641 164.11352539 133.36181641 164.11352539 C133.36181641 163.78352539 133.36181641 163.45352539 133.36181641 163.11352539 C131.38181641 163.11352539 129.40181641 163.11352539 127.36181641 163.11352539 Z M133.36181641 164.11352539 C133.36181641 164.44352539 133.36181641 164.77352539 133.36181641 165.11352539 C136.99181641 165.11352539 140.62181641 165.11352539 144.36181641 165.11352539 C144.36181641 164.78352539 144.36181641 164.45352539 144.36181641 164.11352539 C140.73181641 164.11352539 137.10181641 164.11352539 133.36181641 164.11352539 Z M206.36181641 185.11352539 C207.36181641 187.11352539 207.36181641 187.11352539 207.36181641 187.11352539 Z M200.36181641 203.11352539 C200.36181641 203.44352539 200.36181641 203.77352539 200.36181641 204.11352539 C202.34181641 204.11352539 204.32181641 204.11352539 206.36181641 204.11352539 C206.36181641 203.78352539 206.36181641 203.45352539 206.36181641 203.11352539 C204.38181641 203.11352539 202.40181641 203.11352539 200.36181641 203.11352539 Z " fill="#F17CB0" transform="translate(74.63818359375,10.886474609375)"/>
<path d="M0 0 C1.08066742 0.00007553 2.16133484 0.00015106 3.27474976 0.00022888 C4.42496613 0.00539017 5.5751825 0.01055145 6.76025391 0.01586914 C7.95035065 0.01728409 9.14044739 0.01869904 10.36660767 0.02015686 C14.15670313 0.02574119 17.94673889 0.03829088 21.73681641 0.05102539 C24.3110343 0.05604241 26.88525313 0.06060497 29.45947266 0.06469727 C35.76027418 0.0757055 42.06104102 0.09242808 48.36181641 0.11352539 C48.36181641 0.77352539 48.36181641 1.43352539 48.36181641 2.11352539 C49.24119873 2.0705835 50.12058105 2.0276416 51.02661133 1.98339844 C54.50171231 2.11898359 56.57985331 2.77272849 59.72509766 4.19555664 C60.69382812 4.63319336 61.66255859 5.07083008 62.66064453 5.52172852 C63.65515625 5.98514648 64.64966797 6.44856445 65.67431641 6.92602539 C66.68816406 7.3778418 67.70201172 7.8296582 68.74658203 8.29516602 C74.31853685 10.85162218 74.31853685 10.85162218 76.36181641 12.11352539 C76.69181641 13.10352539 77.02181641 14.09352539 77.36181641 15.11352539 C78.06306641 15.19602539 78.76431641 15.27852539 79.48681641 15.36352539 C83.04709179 16.29229288 85.43212193 17.91625453 88.36181641 20.11352539 C88.69181641 20.77352539 89.02181641 21.43352539 89.36181641 22.11352539 C90.35181641 22.44352539 91.34181641 22.77352539 92.36181641 23.11352539 C92.67119141 23.77352539 92.98056641 24.43352539 93.29931641 25.11352539 C93.64994141 25.77352539 94.00056641 26.43352539 94.36181641 27.11352539 C94.96767578 27.25145508 95.57353516 27.38938477 96.19775391 27.53149414 C98.91310765 28.26179686 100.08527236 29.43641895 102.04931641 31.42602539 C102.65130859 32.0202832 103.25330078 32.61454102 103.87353516 33.22680664 C105.36181641 35.11352539 105.36181641 35.11352539 105.80322266 36.96508789 C106.651222 40.22662383 108.62810121 42.47304922 110.61181641 45.17602539 C117.90706546 55.35173985 121.41641278 64.64270979 121.96728516 77.12915039 C121.79827199 80.93416511 121.79827199 80.93416511 123.36181641 84.11352539 C124.94568703 84.1076592 126.52949232 84.05874687 128.11181641 83.98852539 C132.38618029 83.95188799 135.02839832 84.19678456 138.36181641 87.11352539 C139.48681641 89.05102539 139.48681641 89.05102539 140.36181641 91.11352539 C140.85681641 91.77352539 141.35181641 92.43352539 141.86181641 93.11352539 C143.30871829 95.0427279 144.34884167 96.93173365 145.36181641 99.11352539 C145.69181641 99.11352539 146.02181641 99.11352539 146.36181641 99.11352539 C146.36181641 102.08352539 146.36181641 105.05352539 146.36181641 108.11352539 C152.30181641 108.11352539 158.24181641 108.11352539 164.36181641 108.11352539 C164.69181641 107.45352539 165.02181641 106.79352539 165.36181641 106.11352539 C166.50650391 106.20633789 166.50650391 106.20633789 167.67431641 106.30102539 C170.36120411 106.4098982 170.36120411 106.4098982 171.70166016 104.76586914 C176.6344244 99.85631791 184.55553779 97.5672773 191.36181641 97.11352539 C191.36181641 96.45352539 191.36181641 95.79352539 191.36181641 95.11352539 C192.72306641 94.89696289 192.72306641 94.89696289 194.11181641 94.67602539 C197.17965103 94.14505401 200.12207111 93.46773833 203.11181641 92.61352539 C205.77761625 92.02112542 208.45471257 91.70218493 211.16650391 91.39477539 C212.77742179 91.18839445 214.37929064 90.90789811 215.97119141 90.58618164 C220.5733263 89.94463979 225.09714551 90.00800419 229.73681641 90.05102539 C230.66365234 90.05553711 231.59048828 90.06004883 232.54541016 90.06469727 C234.81761349 90.07640965 237.08968028 90.09281167 239.36181641 90.11352539 C239.36181641 90.77352539 239.36181641 91.43352539 239.36181641 92.11352539 C240.28994141 92.21665039 241.21806641 92.31977539 242.17431641 92.42602539 C247.15019342 93.49925377 249.56283366 97.23240611 252.41650391 101.27368164 C253.88530193 104.13237532 253.3084525 106.13838339 252.36181641 109.11352539 C251.36181641 112.11352539 251.36181641 112.11352539 248.36181641 114.11352539 C245.22509766 114.30883789 245.22509766 114.30883789 241.67431641 114.23852539 C240.49482422 114.22047852 239.31533203 114.20243164 238.10009766 114.18383789 C237.19646484 114.16063477 236.29283203 114.13743164 235.36181641 114.11352539 C235.36181641 113.45352539 235.36181641 112.79352539 235.36181641 112.11352539 C214.10615789 108.41037446 214.10615789 108.41037446 194.36181641 114.11352539 C188.75644603 116.44542986 183.35040908 118.13863821 177.36181641 119.11352539 C175.33265871 120.05295025 173.32306328 121.03950924 171.36181641 122.11352539 C171.36181641 122.77352539 171.36181641 123.43352539 171.36181641 124.11352539 C162.76107552 128.22309441 155.25443746 129.58861349 145.73681641 129.55102539 C144.29701416 129.5471582 144.29701416 129.5471582 142.828125 129.54321289 C138.35814034 129.4481574 135.33501486 129.24989743 131.36181641 127.11352539 C129.22894267 126.87431584 129.22894267 126.87431584 127.11181641 126.98852539 C125.87431641 127.02977539 124.63681641 127.07102539 123.36181641 127.11352539 C123.03181641 128.10352539 122.70181641 129.09352539 122.36181641 130.11352539 C120.29931641 131.30102539 120.29931641 131.30102539 118.36181641 132.11352539 C118.36181641 133.43352539 118.36181641 134.75352539 118.36181641 136.11352539 C119.26931641 136.40227539 120.17681641 136.69102539 121.11181641 136.98852539 C124.36181641 138.11352539 124.36181641 138.11352539 126.09619141 139.13696289 C129.32781333 140.52990337 132.36142355 140.62924713 135.86181641 140.86352539 C137.82634766 141.01047852 137.82634766 141.01047852 139.83056641 141.16040039 C143.30665753 141.11425759 144.48859303 140.82809657 147.36181641 139.11352539 C153.92215614 136.7862295 160.39298229 134.76569179 167.36181641 134.28930664 C169.43233069 134.14955663 169.43233069 134.14955663 171.70166016 133.60571289 C181.19651719 131.8489552 191.00179797 133.20246351 200.36181641 135.11352539 C201.18037109 135.26047852 201.99892578 135.40743164 202.84228516 135.55883789 C205.69416627 136.18669389 208.36298082 137.06664508 211.11181641 138.05102539 C212.55814453 138.55956055 212.55814453 138.55956055 214.03369141 139.07836914 C216.36181641 140.11352539 216.36181641 140.11352539 217.36181641 142.11352539 C220.63737248 142.58353572 220.63737248 142.58353572 224.42431641 142.73852539 C225.71466797 142.81329102 227.00501953 142.88805664 228.33447266 142.96508789 C229.83300781 143.03856445 229.83300781 143.03856445 231.36181641 143.11352539 C231.69181641 142.45352539 232.02181641 141.79352539 232.36181641 141.11352539 C235.16259766 140.76977539 235.16259766 140.76977539 238.67431641 140.61352539 C242.76718418 140.43019425 245.82942257 140.27657149 249.36181641 138.11352539 C249.36181641 137.78352539 249.36181641 137.45352539 249.36181641 137.11352539 C256.62181641 137.11352539 263.88181641 137.11352539 271.36181641 137.11352539 C273.3925944 143.20585937 274.87626127 147.78174669 272.11181641 153.86352539 C267.06263608 160.35532867 267.06263608 160.35532867 262.36181641 161.11352539 C261.37181641 161.44352539 260.38181641 161.77352539 259.36181641 162.11352539 C257.48736899 162.2079515 255.60973328 162.24424172 253.73291016 162.24633789 C252.61464844 162.24762695 251.49638672 162.24891602 250.34423828 162.25024414 C249.17441406 162.24637695 248.00458984 162.24250977 246.79931641 162.23852539 C245.08518555 162.24432617 245.08518555 162.24432617 243.33642578 162.25024414 C237.3152148 162.24335882 231.41198188 162.0453119 225.4309082 161.33398438 C222.73510886 161.04675053 220.06973317 161.04226442 217.36181641 161.11352539 C217.36181641 160.45352539 217.36181641 159.79352539 217.36181641 159.11352539 C202.11315313 153.80405107 188.35949653 153.80052062 172.36181641 155.11352539 C172.36181641 155.77352539 172.36181641 156.43352539 172.36181641 157.11352539 C163.00261063 161.23694597 163.00261063 161.23694597 157.98681641 161.73852539 C154.81020172 162.0671407 153.02011366 162.45208961 150.36181641 164.11352539 C150.36181641 164.44352539 150.36181641 164.77352539 150.36181641 165.11352539 C146.07884109 166.16971542 141.93195995 166.23054632 137.54931641 166.17602539 C136.85644531 166.17151367 136.16357422 166.16700195 135.44970703 166.16235352 C133.75370572 166.15065695 132.05774937 166.13272463 130.36181641 166.11352539 C131.36446533 166.19916748 132.36711426 166.28480957 133.40014648 166.37304688 C137.17051715 166.69517613 140.94085406 167.01769891 144.71118164 167.34033203 C146.3335685 167.4791089 147.95596412 167.61778336 149.57836914 167.75634766 C154.17161119 168.14867823 158.7646845 168.54287621 163.35748291 168.94036865 C165.14057021 169.09441167 166.92379159 169.24690088 168.70703125 169.39916992 C176.73371061 170.10090357 183.8360853 170.93860914 191.23681641 174.23852539 C191.93500488 174.54693359 192.63319336 174.8553418 193.35253906 175.1730957 C200.06913382 178.25146999 206.19964344 181.87026594 210.36181641 188.11352539 C211.59462088 191.81193882 211.8128571 195.26412638 211.36181641 199.11352539 C209.92761032 201.59079044 208.38111038 203.09423142 206.36181641 205.11352539 C201.25862 205.55783258 197.8512371 204.80499104 193.27197266 202.59399414 C192.15757812 202.06612305 191.04318359 201.53825195 189.89501953 200.99438477 C188.7496875 200.43557617 187.60435547 199.87676758 186.42431641 199.30102539 C184.14559139 198.20862701 181.86567013 197.11871997 179.58447266 196.03149414 C178.51600098 195.52150879 177.4475293 195.01152344 176.34667969 194.48608398 C172.73840995 192.82685836 169.10913873 191.42393872 165.36181641 190.11352539 C165.36181641 189.45352539 165.36181641 188.79352539 165.36181641 188.11352539 C160.3806688 187.21947326 155.392024 186.63890263 150.36181641 186.11352539 C150.36181641 185.45352539 150.36181641 184.79352539 150.36181641 184.11352539 C135.89026049 181.50771468 122.06773957 181.62776996 107.48681641 183.17602539 C96.48690755 184.32492901 87.30575453 184.3654385 76.93212891 180.05102539 C74.34732232 179.00122426 74.34732232 179.00122426 71.40478516 178.73461914 C67.67027494 177.97237636 65.57637427 176.46598845 62.54931641 174.17602539 C61.59412109 173.46575195 60.63892578 172.75547852 59.65478516 172.02368164 C57.36181641 170.11352539 57.36181641 170.11352539 56.36181641 168.11352539 C55.37181641 167.78352539 54.38181641 167.45352539 53.36181641 167.11352539 C53.03181641 166.12352539 52.70181641 165.13352539 52.36181641 164.11352539 C51.72501953 163.9755957 51.08822266 163.83766602 50.43212891 163.69555664 C48.36181641 163.11352539 48.36181641 163.11352539 47.22900391 161.18774414 C46.90158203 160.40012695 46.57416016 159.61250977 46.23681641 158.80102539 C44.16597674 154.71127934 42.46196944 153.29237804 38.17431641 151.67602539 C37.31451172 151.40918945 36.45470703 151.14235352 35.56884766 150.86743164 C33.36181641 150.11352539 33.36181641 150.11352539 31.36181641 148.11352539 C29.10021865 148.11352539 26.83592912 148.24496065 24.57666016 148.33227539 C23.40683594 148.37739258 22.23701172 148.42250977 21.03173828 148.46899414 C19.18418945 148.54053711 19.18418945 148.54053711 17.29931641 148.61352539 C15.4459668 148.68506836 15.4459668 148.68506836 13.55517578 148.75805664 C10.49071602 148.87637555 7.42626327 148.99487314 4.36181641 149.11352539 C5.54984299 152.67760513 6.89650835 153.32630767 10.10791016 155.06274414 C14.40350627 157.06537041 18.87844526 158.58934135 23.36181641 160.11352539 C23.36181641 160.77352539 23.36181641 161.43352539 23.36181641 162.11352539 C23.97927734 162.18829102 24.59673828 162.26305664 25.23291016 162.34008789 C31.96632743 163.38545861 37.24890459 165.50749707 42.36181641 170.11352539 C43.06611785 171.42736773 43.73460507 172.76118366 44.36181641 174.11352539 C45.27016104 175.16038592 46.2096543 176.1808199 47.17431641 177.17602539 C52.60263752 183.39680214 55.07219088 190.88717178 57.23681641 198.73852539 C59.09790319 205.06471958 61.92170595 209.3066232 66.36181641 214.11352539 C66.89291016 214.73485352 67.42400391 215.35618164 67.97119141 215.99633789 C70.31649547 218.59551507 71.70004428 220.02720729 75.23681641 220.48852539 C75.93806641 220.36477539 76.63931641 220.24102539 77.36181641 220.11352539 C77.36181641 220.77352539 77.36181641 221.43352539 77.36181641 222.11352539 C84.11733864 222.42305372 84.11733864 222.42305372 90.36181641 220.11352539 C90.69181641 219.12352539 91.02181641 218.13352539 91.36181641 217.11352539 C92.35181641 216.78352539 93.34181641 216.45352539 94.36181641 216.11352539 C95.00119141 215.28852539 95.64056641 214.46352539 96.29931641 213.61352539 C98.36181641 211.11352539 98.36181641 211.11352539 100.29931641 210.67602539 C104.30817719 209.58269972 106.67525844 205.12963118 108.92431641 201.80102539 C110.66362043 199.75923371 111.82049075 199.70650138 114.36181641 199.11352539 C114.69181641 198.12352539 115.02181641 197.13352539 115.36181641 196.11352539 C116.35181641 195.78352539 117.34181641 195.45352539 118.36181641 195.11352539 C118.81556641 194.61852539 119.26931641 194.12352539 119.73681641 193.61352539 C121.84185287 191.67041481 123.57793253 191.60070507 126.36181641 191.11352539 C127.35181641 190.45352539 128.34181641 189.79352539 129.36181641 189.11352539 C131.99731445 188.79467773 131.99731445 188.79467773 135.12353516 188.69946289 C136.24179688 188.66079102 137.36005859 188.62211914 138.51220703 188.58227539 C140.26307617 188.53586914 140.26307617 188.53586914 142.04931641 188.48852539 C143.22816406 188.44985352 144.40701172 188.41118164 145.62158203 188.37133789 C148.53483618 188.27698148 151.44808248 188.19139378 154.36181641 188.11352539 C154.36181641 188.77352539 154.36181641 189.43352539 154.36181641 190.11352539 C156.67181641 190.11352539 158.98181641 190.11352539 161.36181641 190.11352539 C161.36181641 190.77352539 161.36181641 191.43352539 161.36181641 192.11352539 C162.75400391 192.26821289 162.75400391 192.26821289 164.17431641 192.42602539 C167.54585742 193.15322051 168.18782091 193.64307596 170.36181641 196.11352539 C171.38275391 196.54665039 171.38275391 196.54665039 172.42431641 196.98852539 C174.36181641 198.11352539 174.36181641 198.11352539 175.61181641 200.23852539 C177.04877178 205.74685432 177.25747948 210.04336802 174.42431641 214.98852539 C173.74369141 216.01977539 173.06306641 217.05102539 172.36181641 218.11352539 C172.03181641 218.77352539 171.70181641 219.43352539 171.36181641 220.11352539 C161.6439178 219.93386676 152.83457949 218.24299547 143.47241211 215.75341797 C142.6083374 215.52936279 141.7442627 215.30530762 140.85400391 215.07446289 C140.08427246 214.86611816 139.31454102 214.65777344 138.52148438 214.44311523 C136.15793833 214.08241128 134.61748299 214.37872006 132.36181641 215.11352539 C132.36181641 215.44352539 132.36181641 215.77352539 132.36181641 216.11352539 C131.16556641 216.36102539 129.96931641 216.60852539 128.73681641 216.86352539 C124.65940765 217.86664011 121.77766687 219.65093552 118.36181641 222.11352539 C117.37181641 222.44352539 116.38181641 222.77352539 115.36181641 223.11352539 C114.70181641 224.10352539 114.04181641 225.09352539 113.36181641 226.11352539 C112.37181641 226.44352539 111.38181641 226.77352539 110.36181641 227.11352539 C109.70181641 228.10352539 109.04181641 229.09352539 108.36181641 230.11352539 C107.37181641 230.44352539 106.38181641 230.77352539 105.36181641 231.11352539 C105.03181641 231.77352539 104.70181641 232.43352539 104.36181641 233.11352539 C103.37181641 233.44352539 102.38181641 233.77352539 101.36181641 234.11352539 C100.94931641 234.54665039 100.53681641 234.97977539 100.11181641 235.42602539 C92.36101843 242.90000916 82.89994976 242.35661023 72.78369141 242.26977539 C62.2917738 241.79069239 62.2917738 241.79069239 58.81103516 238.76586914 C56.7683223 236.43684612 54.81170649 234.04385846 52.86181641 231.63696289 C51.33007924 229.85064995 51.33007924 229.85064995 48.36181641 229.11352539 C47.98044037 227.79313105 47.66204678 226.45470048 47.36181641 225.11352539 C46.21159833 222.66967052 45.03095379 220.2655521 43.79931641 217.86352539 C43.07501692 216.43791742 42.35106927 215.01213064 41.62744141 213.58618164 C41.25425781 212.85286621 40.88107422 212.11955078 40.49658203 211.36401367 C39.3656333 209.12109512 38.25857216 206.86791634 37.15869141 204.60961914 C36.80492432 203.88742188 36.45115723 203.16522461 36.08666992 202.42114258 C35.40825954 201.0346244 34.73408663 199.64602277 34.06469727 198.25512695 C32.06177812 194.1879801 30.46737385 191.16630411 26.36181641 189.11352539 C25.73681641 187.05102539 25.73681641 187.05102539 25.36181641 185.11352539 C24.67732422 184.99106445 23.99283203 184.86860352 23.28759766 184.74243164 C19.96988951 184.02927942 16.78745104 183.06498674 13.54931641 182.05102539 C12.38787109 181.68879883 11.22642578 181.32657227 10.02978516 180.95336914 C9.14935547 180.6762207 8.26892578 180.39907227 7.36181641 180.11352539 C7.36181641 179.45352539 7.36181641 178.79352539 7.36181641 178.11352539 C3.73181641 178.11352539 0.10181641 178.11352539 -3.63818359 178.11352539 C-3.63818359 177.45352539 -3.63818359 176.79352539 -3.63818359 176.11352539 C-4.22986328 176.0271582 -4.82154297 175.94079102 -5.43115234 175.85180664 C-11.04215582 174.8540915 -14.07001376 173.8084857 -17.63818359 169.11352539 C-26.22594131 155.64217155 -26.14348498 146.75790762 -24.63818359 131.11352539 C-26.53631041 130.04653804 -26.53631041 130.04653804 -28.38818359 129.80102539 C-32.13219928 128.6570206 -35.68335131 126.74235693 -37.70068359 123.30102539 C-38.01005859 122.57915039 -38.31943359 121.85727539 -38.63818359 121.11352539 C-39.48081207 119.97985747 -40.33637016 118.85574872 -41.20068359 117.73852539 C-43.50856284 114.5198214 -44.63818359 112.17799984 -44.63818359 108.11352539 C-43.31370552 104.39237271 -41.82715446 101.39698169 -39.63818359 98.11352539 C-40.73364476 96.62789997 -41.83987182 95.1502083 -42.95068359 93.67602539 C-43.56556641 92.85231445 -44.18044922 92.02860352 -44.81396484 91.17993164 C-46.55116056 88.86368903 -46.55116056 88.86368903 -49.63818359 88.11352539 C-49.76193359 87.14286133 -49.76193359 87.14286133 -49.88818359 86.15258789 C-50.91795983 81.97984877 -52.75860327 78.33969347 -54.63818359 74.48852539 C-55.36879861 72.97620341 -56.0980233 71.46320876 -56.82568359 69.94946289 C-57.14923828 69.28479004 -57.47279297 68.62011719 -57.80615234 67.93530273 C-60.49243313 62.05354592 -59.94199064 55.90337839 -60.01318359 49.55102539 C-60.06925781 47.69380859 -60.06925781 47.69380859 -60.12646484 45.79907227 C-60.23674215 34.22608136 -56.45012985 27.13475151 -49.63818359 18.11352539 C-48.97818359 17.12352539 -48.31818359 16.13352539 -47.63818359 15.11352539 C-46.64818359 14.78352539 -45.65818359 14.45352539 -44.63818359 14.11352539 C-44.01943359 13.49477539 -43.40068359 12.87602539 -42.76318359 12.23852539 C-38.05269312 7.52803492 -34.07487446 6.65900767 -27.63818359 6.11352539 C-27.63818359 5.45352539 -27.63818359 4.79352539 -27.63818359 4.11352539 C-21.84416001 1.63037242 -17.90656461 0.91131955 -11.63818359 1.11352539 C-10.68454926 0.95344498 -9.73091492 0.79336456 -8.74838257 0.62843323 C-5.76166128 0.13396769 -3.02279332 -0.00709576 0 0 Z M-10.63818359 6.11352539 C-11.30479004 6.25274414 -11.97139648 6.39196289 -12.65820312 6.53540039 C-24.61512372 9.11874107 -39.35473878 13.52451716 -46.63818359 24.11352539 C-52.87323074 34.97995529 -57.62464639 45.44523492 -55.02099609 58.11743164 C-51.23418365 71.77341458 -44.62218568 83.11274346 -34.63818359 93.11352539 C-33.90212891 93.94368164 -33.16607422 94.77383789 -32.40771484 95.62915039 C-18.45664059 110.86549949 4.31201534 119.26466834 23.36181641 126.11352539 C2.15226368 126.02009124 -17.83979372 113.99215561 -34.63818359 102.11352539 C-38.02664216 105.13019087 -38.02664216 105.13019087 -39.13818359 109.48852539 C-38.35098034 115.19574897 -36.03426698 117.99019866 -31.59912109 121.55883789 C-27.32290559 124.54467685 -22.70971832 126.12929589 -17.82568359 127.86352539 C-11.6737581 130.12376473 -7.23049439 131.89393537 -2.95068359 137.05102539 C1.39421443 141.63948913 5.55498295 141.70676897 11.57202148 141.98876953 C14.87132627 142.04891987 18.16375974 142.04192209 21.46337891 142.01586914 C28.18676289 141.99877624 33.79023613 143.07585156 39.79931641 146.23852539 C47.11295377 149.54025265 52.48217669 148.63850077 59.92431641 145.92602539 C64.40816412 144.0886396 68.46563989 142.0782794 72.38525391 139.22680664 C79.25886335 135.35530725 86.79419118 135.76701314 94.44775391 135.72290039 C102.15338994 135.52129945 108.68047456 133.86506967 114.43603516 128.49243164 C115.29841797 127.56301758 116.16080078 126.63360352 117.04931641 125.67602539 C120.64657947 121.88244501 124.24339996 118.34147342 128.36181641 115.11352539 C128.03181641 116.43352539 127.70181641 117.75352539 127.36181641 119.11352539 C131.3948932 118.87628558 133.89961543 118.41838135 137.29931641 116.17602539 C140.24544954 111.80146407 140.09177206 108.23925797 139.36181641 103.11352539 C137.4752616 97.05669153 134.60251617 92.90443842 128.98681641 89.80102539 C125.66246307 88.93036142 122.78269947 88.85534554 119.36181641 89.11352539 C118.70181641 89.77352539 118.04181641 90.43352539 117.36181641 91.11352539 C118.35181641 92.59852539 118.35181641 92.59852539 119.36181641 94.11352539 C120.10552616 98.42704194 120.26335262 100.69785049 117.88916016 104.42602539 C107.95514572 116.11774815 93.99363411 121.59135555 79.36181641 125.11352539 C76.88566285 125.2426262 74.40338351 125.28574572 71.92431641 125.23852539 C70.68810547 125.22047852 69.45189453 125.20243164 68.17822266 125.18383789 C67.24880859 125.16063477 66.31939453 125.13743164 65.36181641 125.11352539 C66.52197266 124.79899414 67.68212891 124.48446289 68.87744141 124.16040039 C93.71731441 117.76014978 93.71731441 117.76014978 114.36181641 103.11352539 C115.71621308 100.40473204 115.42683091 98.10419271 115.36181641 95.11352539 C111.92094923 96.64279969 109.2694171 98.74115468 106.36181641 101.11352539 C107.19326172 99.82768555 107.19326172 99.82768555 108.04150391 98.51586914 C108.77372779 97.3612084 109.50547313 96.2062441 110.23681641 95.05102539 C110.60162109 94.48963867 110.96642578 93.92825195 111.34228516 93.34985352 C116.52861399 85.09887582 117.32578672 76.70140219 116.36181641 67.11352539 C113.87108729 57.13796562 107.51466985 49.12327588 101.36181641 41.11352539 C100.87068359 40.43547852 100.37955078 39.75743164 99.87353516 39.05883789 C84.65495103 19.36419961 56.57283375 7.86230036 32.77587891 3.65649414 C30.29297709 3.3387166 27.86430446 3.19764264 25.36181641 3.11352539 C24.04955078 3.06196289 22.73728516 3.01040039 21.38525391 2.95727539 C10.42171418 2.66739442 0.07586014 3.82943796 -10.63818359 6.11352539 Z M146.36181641 109.11352539 C146.36181641 109.44352539 146.36181641 109.77352539 146.36181641 110.11352539 C150.98181641 110.11352539 155.60181641 110.11352539 160.36181641 110.11352539 C160.36181641 109.78352539 160.36181641 109.45352539 160.36181641 109.11352539 C155.74181641 109.11352539 151.12181641 109.11352539 146.36181641 109.11352539 Z M-23.63818359 130.11352539 C-22.63818359 133.11352539 -22.63818359 133.11352539 -22.63818359 133.11352539 Z M79.36181641 141.11352539 C79.36181641 141.44352539 79.36181641 141.77352539 79.36181641 142.11352539 C82.33181641 142.11352539 85.30181641 142.11352539 88.36181641 142.11352539 C88.36181641 141.78352539 88.36181641 141.45352539 88.36181641 141.11352539 C85.39181641 141.11352539 82.42181641 141.11352539 79.36181641 141.11352539 Z M74.36181641 144.11352539 C73.02848307 144.78019206 71.69514974 145.44685872 70.36181641 146.11352539 C69.70181641 146.77352539 69.04181641 147.43352539 68.36181641 148.11352539 C68.98715015 150.63716527 68.98715015 150.63716527 70.36181641 153.11352539 C72.90956947 154.00738703 72.90956947 154.00738703 75.36181641 154.11352539 C75.69181641 155.10352539 76.02181641 156.09352539 76.36181641 157.11352539 C78.67181641 157.44352539 80.98181641 157.77352539 83.36181641 158.11352539 C83.36181641 158.77352539 83.36181641 159.43352539 83.36181641 160.11352539 C89.07365585 161.44707468 94.93261759 161.78180016 100.76416016 162.27563477 C102.01132813 162.39455078 102.01132813 162.39455078 103.28369141 162.51586914 C104.04262695 162.58281982 104.8015625 162.64977051 105.58349609 162.71875 C106.46376465 162.91416382 106.46376465 162.91416382 107.36181641 163.11352539 C107.85681641 164.10352539 107.85681641 164.10352539 108.36181641 165.11352539 C115.92589174 165.3194226 115.92589174 165.3194226 123.36181641 164.11352539 C120.93399118 160.94679683 119.05769566 159.88773673 115.23681641 159.23852539 C109.61496061 158.19433327 104.83929528 155.65149547 100.36181641 152.11352539 C99.65747546 150.79970423 98.98193526 149.46913405 98.36181641 148.11352539 C97.70181641 147.94852539 97.04181641 147.78352539 96.36181641 147.61352539 C95.70181641 147.44852539 95.04181641 147.28352539 94.36181641 147.11352539 C93.23681641 145.11352539 93.23681641 145.11352539 92.36181641 143.11352539 C89.39140191 141.62831814 86.66417193 141.9429432 83.36181641 141.92602539 C82.10369141 141.9118457 80.84556641 141.89766602 79.54931641 141.88305664 C76.26827041 141.77088992 76.26827041 141.77088992 74.36181641 144.11352539 Z M130.36181641 142.11352539 C130.36181641 142.44352539 130.36181641 142.77352539 130.36181641 143.11352539 C134.32181641 143.11352539 138.28181641 143.11352539 142.36181641 143.11352539 C142.36181641 142.78352539 142.36181641 142.45352539 142.36181641 142.11352539 C138.40181641 142.11352539 134.44181641 142.11352539 130.36181641 142.11352539 Z M2.36181641 145.11352539 C3.36181641 149.11352539 3.36181641 149.11352539 3.36181641 149.11352539 Z M181.36181641 152.11352539 C181.36181641 152.44352539 181.36181641 152.77352539 181.36181641 153.11352539 C184.99181641 153.11352539 188.62181641 153.11352539 192.36181641 153.11352539 C192.36181641 152.78352539 192.36181641 152.45352539 192.36181641 152.11352539 C188.73181641 152.11352539 185.10181641 152.11352539 181.36181641 152.11352539 Z M175.36181641 153.11352539 C175.36181641 153.44352539 175.36181641 153.77352539 175.36181641 154.11352539 C177.01181641 154.11352539 178.66181641 154.11352539 180.36181641 154.11352539 C180.36181641 153.78352539 180.36181641 153.45352539 180.36181641 153.11352539 C178.71181641 153.11352539 177.06181641 153.11352539 175.36181641 153.11352539 Z M93.36181641 162.11352539 C93.36181641 162.44352539 93.36181641 162.77352539 93.36181641 163.11352539 C95.34181641 163.11352539 97.32181641 163.11352539 99.36181641 163.11352539 C99.36181641 162.78352539 99.36181641 162.45352539 99.36181641 162.11352539 C97.38181641 162.11352539 95.40181641 162.11352539 93.36181641 162.11352539 Z M100.36181641 163.11352539 C100.36181641 163.44352539 100.36181641 163.77352539 100.36181641 164.11352539 C102.67181641 164.11352539 104.98181641 164.11352539 107.36181641 164.11352539 C107.36181641 163.78352539 107.36181641 163.45352539 107.36181641 163.11352539 C105.05181641 163.11352539 102.74181641 163.11352539 100.36181641 163.11352539 Z M127.36181641 163.11352539 C127.36181641 163.44352539 127.36181641 163.77352539 127.36181641 164.11352539 C129.34181641 164.11352539 131.32181641 164.11352539 133.36181641 164.11352539 C133.36181641 163.78352539 133.36181641 163.45352539 133.36181641 163.11352539 C131.38181641 163.11352539 129.40181641 163.11352539 127.36181641 163.11352539 Z M133.36181641 164.11352539 C133.36181641 164.44352539 133.36181641 164.77352539 133.36181641 165.11352539 C136.99181641 165.11352539 140.62181641 165.11352539 144.36181641 165.11352539 C144.36181641 164.78352539 144.36181641 164.45352539 144.36181641 164.11352539 C140.73181641 164.11352539 137.10181641 164.11352539 133.36181641 164.11352539 Z M206.36181641 185.11352539 C207.36181641 187.11352539 207.36181641 187.11352539 207.36181641 187.11352539 Z M200.36181641 203.11352539 C200.36181641 203.44352539 200.36181641 203.77352539 200.36181641 204.11352539 C202.34181641 204.11352539 204.32181641 204.11352539 206.36181641 204.11352539 C206.36181641 203.78352539 206.36181641 203.45352539 206.36181641 203.11352539 C204.38181641 203.11352539 202.40181641 203.11352539 200.36181641 203.11352539 Z " fill="#FAF2F8" transform="translate(74.63818359375,10.886474609375)"/>
<path d="M0 0 C4.44321353 0.51944043 6.83253477 2.10837085 10.25 4.9375 C11.12140625 5.64777344 11.9928125 6.35804688 12.890625 7.08984375 C15 9 15 9 16 11 C15.9175 12.19625 15.835 13.3925 15.75 14.625 C15.75 19.82206116 17.34960078 23.30358734 21 27 C26.74101874 30.82147567 32.9031725 33.05835563 39.5 34.9375 C50.01032478 37.99091968 59.57064453 43.08084931 65.03125 52.84375 C66.75929254 56.467065 68.07259965 60.18647377 69.296875 64.00390625 C73.46391577 76.84595523 78.6300766 86.38729328 91 93 C96.41486325 95.43116309 101.64291706 96.06610066 107.3125 94.265625 C113.91751284 91.34417701 118.82379641 86.77909703 123.97265625 81.85546875 C134.83801612 71.48001239 146.1922245 62.11417033 161.75 61.375 C170.35716825 61.62200483 179.67651142 64.42412935 186.39453125 69.98046875 C188 72 188 72 188.5625 75.5625 C188 79 188 79 186.125 80.9375 C179.5591225 83.16989835 173.94182046 82.56450508 167.5625 80 C158.56805019 76.46781775 150.45488181 77.4456979 141.39453125 80.4765625 C134.95209847 83.36787295 129.55159182 87.69181943 124 92 C111.78840671 101.24683639 102.69159761 106.99387036 87 105 C76.33351049 101.59930742 70.13408883 92.35557876 65 83 C63.2742742 79.39611526 61.7012922 75.73366914 60.125 72.0625 C54.81273954 60.12985488 49.77273095 49.22813294 37 44 C31.08273244 42.03653019 25.04125587 40.52612125 19 39 C4.73462402 35.24040584 4.73462402 35.24040584 0.6875 28.5 C-3.0618897 20.72348802 -3.40554516 10.93351412 -1 2.625 C-0.67 1.75875 -0.34 0.8925 0 0 Z " fill="#ED7FB0" transform="translate(57,143)"/>
<path d="M0 0 C7.74797734 7.35169631 7.74797734 7.35169631 8.23828125 12.50390625 C8.44869677 21.17524045 6.92492371 27.3581725 1.6875 34.3125 C-5.22834057 41.22834057 -12.53392497 42.34554836 -22.05957031 42.3828125 C-33.91878187 42.10794907 -44.44693378 35.47893651 -52.7265625 27.29296875 C-57.31827529 21.98967473 -58.57994504 17.74725177 -58.44140625 10.8203125 C-57.49804117 4.79279403 -53.36097921 0.87847386 -48.75 -2.8125 C-34.1976613 -12.19701471 -13.71023726 -9.58670025 0 0 Z " fill="#D90962" transform="translate(105,46)"/>
<path d="M0 0 C0.79188721 0.01506592 1.58377441 0.03013184 2.3996582 0.0456543 C25.29868298 0.683337 25.29868298 0.683337 33.4375 7.9375 C36.07913456 11.3596175 36.16087762 14.7908433 36.2265625 19.0078125 C36.64672059 21.96846139 37.59428597 23.14223518 39.5625 25.375 C41.59539896 26.62012277 41.59539896 26.62012277 43.9140625 27.5234375 C44.76613281 27.88953125 45.61820313 28.255625 46.49609375 28.6328125 C47.38425781 29.00148438 48.27242187 29.37015625 49.1875 29.75 C66.80361842 37.10098831 66.80361842 37.10098831 71.5625 44.375 C72.53886789 47.30410368 72.56423456 48.75293371 72.375 51.75 C72.32302974 55.29552639 72.47402695 56.23344311 74.4375 59.375 C76.39887134 61.41291396 76.39887134 61.41291396 78.5625 62.375 C78.5625 63.035 78.5625 63.695 78.5625 64.375 C79.2225 64.375 79.8825 64.375 80.5625 64.375 C83.47648731 69.38341569 85.57313433 73.42348674 84.5625 79.375 C82.625 82.3125 82.625 82.3125 79.5625 84.375 C75.2393512 85.19585104 71.71697629 84.87694621 67.6875 83.125 C62.51998739 78.86940138 61.7858014 74.53933886 60.6015625 68.15234375 C59.28598422 64.63589203 57.8760704 63.98387208 54.5625 62.375 C50.71318087 59.68942851 48.84339223 57.90738791 47.5625 53.375 C47.46001953 52.22064453 47.46001953 52.22064453 47.35546875 51.04296875 C46.7720028 45.72068499 46.7720028 45.72068499 43.59765625 41.60546875 C40.97627916 40.03595545 38.32170614 38.68675374 35.5625 37.375 C18.84699096 28.69754995 18.84699096 28.69754995 16.68359375 23.1015625 C16 20.6875 16 20.6875 15.55859375 18.42578125 C13.9936471 15.20383226 11.84219201 14.64710022 8.5625 13.375 C5.20678696 12.5599982 1.80877886 12.07186367 -1.60351562 11.55859375 C-5.80892931 10.86368209 -9.03704603 9.99765637 -12.4375 7.375 C-12.7675 6.385 -13.0975 5.395 -13.4375 4.375 C-9.23327426 0.16244906 -5.69935719 -0.1947416 0 0 Z " fill="#F8BEDA" transform="translate(100.4375,18.625)"/>
<path d="M0 0 C3.47641018 1.78060034 6.75236965 3.80616853 10.0625 5.875 C20.17845175 11.69167226 31.17869916 9.83208389 41.9987793 6.95117188 C46.63846682 5.65048485 51.10335572 4.12918841 55.5625 2.3125 C60.24905236 0.46750669 64.44862068 0.00548424 69.4375 0.0625 C70.44103516 0.05089844 70.44103516 0.05089844 71.46484375 0.0390625 C79.70297207 0.07080866 87.09161065 2.7305954 94.8125 5.375 C96.37973744 5.90893628 97.94743085 6.44153644 99.515625 6.97265625 C100.19786133 7.20605713 100.88009766 7.43945801 101.58300781 7.67993164 C113.43563526 11.46756826 128.71219569 9.95103189 140.25 5.6875 C144.97765549 3.95402632 149.57278992 3.8220181 154.5625 4.3125 C155.5525 4.8075 155.5525 4.8075 156.5625 5.3125 C156.19336616 11.71081981 156.19336616 11.71081981 153.3671875 14.40625 C142.8741454 21.5380112 129.01264212 21.91560352 116.85107422 19.85253906 C109.03901147 18.27619348 101.35367357 16.29821302 93.81640625 13.70703125 C75.56638578 7.54339392 57.13865272 11.71647626 40.0859375 19.26171875 C29.15066426 23.81526132 15.49175372 22.24118511 4.8203125 17.87109375 C-2.79843349 14.22615412 -10.34099509 10.23965755 -16.4375 4.3125 C-16.4375 3.6525 -16.4375 2.9925 -16.4375 2.3125 C-15.76203125 2.26351562 -15.0865625 2.21453125 -14.390625 2.1640625 C-13.49859375 2.08929688 -12.6065625 2.01453125 -11.6875 1.9375 C-10.80578125 1.86789063 -9.9240625 1.79828125 -9.015625 1.7265625 C-6.43133432 1.4686283 -6.43133432 1.4686283 -4.421875 0.1484375 C-2.4375 -0.6875 -2.4375 -0.6875 0 0 Z " fill="#ED80B0" transform="translate(186.4375,148.6875)"/>
<path d="M0 0 C11.43072482 8.26399068 24.15509117 11.84577828 38.09765625 12.84765625 C39.08261581 12.92745224 40.06757538 13.00724823 41.0823822 13.08946228 C44.20006912 13.34031632 47.31861194 13.5770985 50.4375 13.8125 C54.53289589 14.1324377 58.62784638 14.45780929 62.72265625 14.78515625 C64.2160553 14.90406471 64.2160553 14.90406471 65.73962402 15.02537537 C123.27935144 19.68535381 123.27935144 19.68535381 138.375 36.75 C137.715 38.4 137.055 40.05 136.375 41.75 C131.18907382 42.18347407 127.91370815 40.77864652 123.5 38.3125 C108.87225823 30.59921293 92.78430693 24.2235429 76.375 21.75 C75.3540625 21.56695312 74.333125 21.38390625 73.28125 21.1953125 C67.82655724 20.57347753 62.42271001 20.60567454 56.9375 20.625 C55.84373047 20.62113281 54.74996094 20.61726563 53.62304688 20.61328125 C46.92746328 20.61840784 46.92746328 20.61840784 40.26953125 21.23828125 C35.33233219 21.88700048 30.47453104 22.0111809 25.5 22.0625 C24.57058594 22.09150391 23.64117187 22.12050781 22.68359375 22.15039062 C12.7260632 22.24066113 4.98185324 18.66017617 -3.125 13.125 C-3.75865479 12.69840088 -4.39230957 12.27180176 -5.04516602 11.83227539 C-10.8861721 7.78315236 -15.98411724 3.15526345 -20.625 -2.25 C-20.625 -2.58 -20.625 -2.91 -20.625 -3.25 C-18.89685839 -3.44672365 -17.16740803 -3.63196799 -15.4375 -3.8125 C-14.47457031 -3.91691406 -13.51164063 -4.02132812 -12.51953125 -4.12890625 C-7.17313182 -4.35257478 -4.21822098 -3.24478537 0 0 Z " fill="#EB80AF" transform="translate(143.625,167.25)"/>
<path d="M0 0 C2.42012306 2.17522966 4.72885517 4.40856102 6.96875 6.76953125 C7.47535156 7.22070312 7.98195313 7.671875 8.50390625 8.13671875 C17.31079731 16.20134337 26.00019363 29.05252391 27.33984375 41.109375 C27.61830819 48.88106443 26.65818985 55.83500015 22.96875 62.76953125 C21.97875 63.26453125 21.97875 63.26453125 20.96875 63.76953125 C19.97875 62.77953125 18.98875 61.78953125 17.96875 60.76953125 C18.95875 59.28453125 18.95875 59.28453125 19.96875 57.76953125 C20.46871233 52.4699306 19.53828394 49.37327957 16.96875 44.76953125 C16.96875 44.10953125 16.96875 43.44953125 16.96875 42.76953125 C16.30875 42.76953125 15.64875 42.76953125 14.96875 42.76953125 C14.96875 42.10953125 14.96875 41.44953125 14.96875 40.76953125 C14.370625 40.54265625 13.7725 40.31578125 13.15625 40.08203125 C10.23247999 38.32776924 9.33027537 36.90103961 7.96875 33.76953125 C7.96875 31.76292578 7.97089503 29.75581132 8.02734375 27.75 C7.92652547 24.34234222 6.9489813 22.52985367 4.96875 19.76953125 C-0.58397412 14.8381834 -7.47629834 12.08542037 -14.27026367 9.30493164 C-19.73218305 7.04369568 -24.66136063 4.82436531 -28.03125 -0.23046875 C-28.26953125 -2.5 -28.26953125 -2.5 -28.34375 -5.04296875 C-28.81112532 -10.21425057 -29.92794789 -12.79709352 -34.03125 -16.23046875 C-41.98706816 -19.7498278 -50.59893976 -19.95529672 -59.15625 -20.41796875 C-60.50787843 -20.4995661 -61.85944225 -20.58224121 -63.2109375 -20.66601562 C-66.48390004 -20.86473121 -69.75709878 -21.05261599 -73.03125 -21.23046875 C-73.03125 -22.22046875 -73.03125 -23.21046875 -73.03125 -24.23046875 C-83.42625 -23.73546875 -83.42625 -23.73546875 -94.03125 -23.23046875 C-65.86638143 -37.31290303 -21.96329079 -18.55898072 0 0 Z " fill="#ED7FB0" transform="translate(164.03125,40.23046875)"/>
<path d="M0 0 C2.8828125 2.140625 2.8828125 2.140625 5 4 C4.125 7.875 4.125 7.875 3 9 C-2.86317378 9.48954655 -8.53096509 8.98216436 -14.3125 8 C-34.11451778 4.99044223 -50.00547217 7.06097875 -67.5637207 16.63037109 C-80.286892 23.48887764 -91.6555855 25.79008403 -106 25 C-106.33 24.34 -106.66 23.68 -107 23 C-105.824375 22.1028125 -105.824375 22.1028125 -104.625 21.1875 C-101.85425677 19.08914751 -101.85425677 19.08914751 -100 16 C-98.19091797 15.6628418 -98.19091797 15.6628418 -95.9921875 15.69921875 C-94.77208984 15.69329712 -94.77208984 15.69329712 -93.52734375 15.68725586 C-92.65207031 15.68733643 -91.77679688 15.68741699 -90.875 15.6875 C-80.77843527 15.42194306 -73.14418198 13.03394868 -64 9 C-21.34549356 -9.1723341 -21.34549356 -9.1723341 0 0 Z " fill="#EA82B0" transform="translate(318,109)"/>
<path d="M0 0 C4.9923794 0.88233896 7.6130754 2.35616098 10.9609375 6.14453125 C12.88945253 10.07573496 13.5006643 13.20478773 12.5859375 17.45703125 C10.11830984 23.45869853 5.58777945 25.89691534 -0.109375 28.51171875 C-5.28540396 30.63476792 -9.86010925 31.21760447 -15.4140625 30.45703125 C-18.5390625 28.45703125 -18.5390625 28.45703125 -20.4140625 25.45703125 C-21.57469897 18.49321245 -19.29431946 14.15399885 -15.4140625 8.45703125 C-14.91777344 7.68230469 -14.42148438 6.90757813 -13.91015625 6.109375 C-9.90729026 0.64039905 -6.74212999 -0.54491188 0 0 Z " fill="#D80A61" transform="translate(131.4140625,72.54296875)"/>
<path d="M0 0 C3.31156166 2.03835496 5.0587161 3.71893352 7.23828125 6.98828125 C7.67578125 9.36328125 7.67578125 9.36328125 7.23828125 11.98828125 C3.82594081 16.04619961 1.52473684 17.78255902 -3.80078125 18.26171875 C-12.78255998 18.51610464 -18.63932846 17.44253367 -25.46875 11.50390625 C-26.76171875 9.98828125 -26.76171875 9.98828125 -27.26171875 7.05078125 C-26.76171875 3.98828125 -26.76171875 3.98828125 -24.44921875 1.67578125 C-17.96257499 -2.39722762 -7.16934574 -2.62639398 0 0 Z " fill="#D80A61" transform="translate(98.76171875,101.01171875)"/>
<path d="M0 0 C1.97119141 -0.2487793 1.97119141 -0.2487793 4.3515625 -0.07421875 C5.62773437 0.00795898 5.62773437 0.00795898 6.9296875 0.09179688 C7.81914062 0.16462891 8.70859375 0.23746094 9.625 0.3125 C10.5221875 0.37373047 11.419375 0.43496094 12.34375 0.49804688 C14.56386306 0.65156533 16.78194979 0.81943161 19 1 C19 5 19 5 18 7 C12.60388124 9.00687902 7.77485962 9.25226765 2.0625 9.125 C1.28326172 9.11597656 0.50402344 9.10695312 -0.29882812 9.09765625 C-2.19935447 9.07433691 -4.09972008 9.03847586 -6 9 C-6.33 8.34 -6.66 7.68 -7 7 C-6.21625 6.401875 -5.4325 5.80375 -4.625 5.1875 C-1.85425677 3.08914751 -1.85425677 3.08914751 0 0 Z " fill="#ED7DAF" transform="translate(218,125)"/>
<path d="M0 0 C0 0.99 0 1.98 0 3 C-3 5 -3 5 -6 5 C-6 5.66 -6 6.32 -6 7 C-7.50721474 8.2123249 -9.01526829 9.423656 -10.53125 10.625 C-12.51540131 12.48250335 -13.26181526 14.4163534 -14 17 C-14.66 17 -15.32 17 -16 17 C-16.30744141 18.13888672 -16.30744141 18.13888672 -16.62109375 19.30078125 C-16.89050781 20.29464844 -17.15992188 21.28851563 -17.4375 22.3125 C-17.70433594 23.29863281 -17.97117187 24.28476562 -18.24609375 25.30078125 C-18.78079425 27.21517526 -19.37144538 29.11433615 -20 31 C-20.22560676 33.39254576 -20.40848595 35.78928123 -20.5625 38.1875 C-20.68818359 40.09595703 -20.68818359 40.09595703 -20.81640625 42.04296875 C-20.90728516 43.50669922 -20.90728516 43.50669922 -21 45 C-23.90920393 40.63619411 -23.64405461 37.12587789 -23 32 C-19.73723829 19.62111008 -14.43117367 9.62278076 -4 2 C-2.6835882 1.3005129 -1.35429761 0.6229769 0 0 Z " fill="#E28AB1" transform="translate(42,24)"/>
<path d="M0 0 C-0.94641013 3.26941682 -1.41184947 4.66822278 -4.4375 6.375 C-7 7 -7 7 -10 6 C-10 5.01 -10 4.02 -10 3 C-15.61 2.67 -21.22 2.34 -27 2 C-27 1.67 -27 1.34 -27 1 C-23.25006257 0.83190552 -19.50004074 0.66577241 -15.75 0.5 C-14.15478516 0.42845703 -14.15478516 0.42845703 -12.52734375 0.35546875 C-11.50253906 0.31035156 -10.47773438 0.26523438 -9.421875 0.21875 C-8.47924805 0.17685547 -7.53662109 0.13496094 -6.56542969 0.09179688 C-4.37813904 0.01353067 -2.18869047 0 0 0 Z " fill="#EA8DB6" transform="translate(246,124)"/>
<path d="M0 0 C0.99 0.33 1.98 0.66 3 1 C-3.65974196 6.87624291 -9.91081118 7.31751455 -18.4375 7.5625 C-24.36597861 7.7585862 -30.14362785 8.02528056 -36 9 C-35.34 8.67 -34.68 8.34 -34 8 C-33.67 7.34 -33.34 6.68 -33 6 C-32.33468262 5.97494385 -31.66936523 5.9498877 -30.98388672 5.92407227 C-27.94742513 5.80748864 -24.91122654 5.68504649 -21.875 5.5625 C-20.82828125 5.52318359 -19.7815625 5.48386719 -18.703125 5.44335938 C-13.72806158 5.23868904 -8.89229851 5.00723793 -4 4 C-4 3.34 -4 2.68 -4 2 C-2.68 2 -1.36 2 0 2 C0 1.34 0 0.68 0 0 Z " fill="#DF7DA8" transform="translate(185,139)"/>
<path d="M0 0 C0.33 0 0.66 0 1 0 C2.74357635 8.11367214 1.31035105 12.99008653 -3 20 C-3.66 20 -4.32 20 -5 20 C-5.66 21.32 -6.32 22.64 -7 24 C-7.99 24 -8.98 24 -10 24 C-9.51789063 23.41992188 -9.03578125 22.83984375 -8.5390625 22.2421875 C-2.63712324 14.94305446 -0.78065868 9.24464222 0 0 Z " fill="#FA72B2" transform="translate(113,59)"/>
<path d="M0 0 C14.85 0 29.7 0 45 0 C45 0.33 45 0.66 45 1 C30.15 1 15.3 1 0 1 C0 0.67 0 0.34 0 0 Z " fill="#E8D7E5" transform="translate(69,9)"/>
<path d="M0 0 C1.62723299 0.45034123 3.25173664 0.91055354 4.875 1.375 C5.77992187 1.63023437 6.68484375 1.88546875 7.6171875 2.1484375 C10 3 10 3 12 5 C7.48382401 5.07654536 3.40914783 5.10228696 -1 4 C-0.67 2.68 -0.34 1.36 0 0 Z " fill="#FCDAF1" transform="translate(88,133)"/>
<path d="M0 0 C0.66 0.33 1.32 0.66 2 1 C-1.33333333 4.33333333 -4.66666667 7.66666667 -8 11 C-8.99 10.67 -9.98 10.34 -11 10 C-9.37660195 8.29115995 -7.70680947 6.62553283 -6 5 C-5.34 5 -4.68 5 -4 5 C-3.566875 4.0409375 -3.566875 4.0409375 -3.125 3.0625 C-2 1 -2 1 0 0 Z " fill="#FDDEF2" transform="translate(203,125)"/>
<path d="M0 0 C0.33 0 0.66 0 1 0 C1 9.24 1 18.48 1 28 C0.67 28 0.34 28 0 28 C0 18.76 0 9.52 0 0 Z " fill="#FFFFFF" transform="translate(13,46)"/>
<path d="M0 0 C0.99 0.33 1.98 0.66 3 1 C-1.27575688 5.13782924 -5.31953056 6.05944297 -11 7 C-9.75 5.5 -9.75 5.5 -8 4 C-6.68 4 -5.36 4 -4 4 C-4 3.34 -4 2.68 -4 2 C-2.68 2 -1.36 2 0 2 C0 1.34 0 0.68 0 0 Z " fill="#E387B2" transform="translate(185,139)"/>
<path d="M0 0 C0.66 1.32 1.32 2.64 2 4 C0.37660195 5.70884005 -1.29319053 7.37446717 -3 9 C-3.66 9 -4.32 9 -5 9 C-3.7508258 5.54074837 -2.32472205 2.85306797 0 0 Z " fill="#FEE2F7" transform="translate(186,103)"/>
<path d="M0 0 C0.60328125 0.19722656 1.2065625 0.39445312 1.828125 0.59765625 C1.10496094 1.06945312 1.10496094 1.06945312 0.3671875 1.55078125 C-4.42558852 4.69154373 -4.42558852 4.69154373 -7.171875 9.59765625 C-7.484375 6.84765625 -7.484375 6.84765625 -7.171875 3.59765625 C-3.28860468 -0.60921993 -3.28860468 -0.60921993 0 0 Z " fill="#D31767" transform="translate(79.171875,101.40234375)"/>
<path d="M0 0 C0.99 0.66 1.98 1.32 3 2 C-2.2734375 5.22265625 -2.2734375 5.22265625 -4 6 C-4.66 5.67 -5.32 5.34 -6 5 C-3.375 1.125 -3.375 1.125 0 0 Z " fill="#E680AB" transform="translate(251,121)"/>
<path d="M0 0 C0.33 0.66 0.66 1.32 1 2 C-1.66666667 4.66666667 -4.33333333 7.33333333 -7 10 C-7.66 9.67 -8.32 9.34 -9 9 C-7.87895467 7.68412059 -6.75303035 6.37239647 -5.625 5.0625 C-4.99851562 4.33160156 -4.37203125 3.60070313 -3.7265625 2.84765625 C-2 1 -2 1 0 0 Z " fill="#D11364" transform="translate(57,43)"/>
<path d="M0 0 C7.26 0 14.52 0 22 0 C22 0.33 22 0.66 22 1 C14.74 1 7.48 1 0 1 C0 0.67 0 0.34 0 0 Z " fill="#C3CEDC" transform="translate(309,174)"/>
<path d="M0 0 C0.33 0 0.66 0 1 0 C1.25028811 1.58013217 1.47440946 3.16442306 1.6875 4.75 C1.87892578 6.07257813 1.87892578 6.07257813 2.07421875 7.421875 C2 10 2 10 -1 14 C-0.67 9.38 -0.34 4.76 0 0 Z " fill="#F767A8" transform="translate(113,59)"/>
<path d="M0 0 C3.3 0 6.6 0 10 0 C7.41212273 2.58787727 5.57992139 2.62709152 2 3 C1.34 2.67 0.68 2.34 0 2 C0 1.34 0 0.68 0 0 Z " fill="#E291B4" transform="translate(170,151)"/>
<path d="M0 0 C0.33 0 0.66 0 1 0 C1 5.61 1 11.22 1 17 C0.67 17 0.34 17 0 17 C0 11.39 0 5.78 0 0 Z " fill="#FFFFFF" transform="translate(197,77)"/>
<path d="M0 0 C3.73884332 2.65654657 5.64978174 4.58110387 7 9 C3.26115668 6.34345343 1.35021826 4.41889613 0 0 Z " fill="#E386AE" transform="translate(173,50)"/>
<path d="M0 0 C2.31 1.98 4.62 3.96 7 6 C6.67 6.66 6.34 7.32 6 8 C1.3125 4.38671875 1.3125 4.38671875 0 3 C0 2.01 0 1.02 0 0 Z " fill="#98DCB6" transform="translate(173,40)"/>
<path d="M0 0 C4.62 0 9.24 0 14 0 C14 0.33 14 0.66 14 1 C9.38 1 4.76 1 0 1 C0 0.67 0 0.34 0 0 Z " fill="#C2D4EC" transform="translate(144,254)"/>
<path d="M0 0 C4.62 0 9.24 0 14 0 C14 0.33 14 0.66 14 1 C9.38 1 4.76 1 0 1 C0 0.67 0 0.34 0 0 Z " fill="#FFFFFF" transform="translate(249,142)"/>
<path d="M0 0 C4.62 0 9.24 0 14 0 C14 0.33 14 0.66 14 1 C9.38 1 4.76 1 0 1 C0 0.67 0 0.34 0 0 Z " fill="#FFFFF2" transform="translate(214,140)"/>
<path d="M0 0 C4.62 0 9.24 0 14 0 C14 0.33 14 0.66 14 1 C9.38 1 4.76 1 0 1 C0 0.67 0 0.34 0 0 Z " fill="#FFFFEC" transform="translate(277,121)"/>
<path d="M0 0 C4.29 0 8.58 0 13 0 C13 0.33 13 0.66 13 1 C8.71 1 4.42 1 0 1 C0 0.67 0 0.34 0 0 Z " fill="#FFFFFF" transform="translate(294,99)"/>
<path d="M0 0 C3.96 0 7.92 0 12 0 C12 0.33 12 0.66 12 1 C8.04 1 4.08 1 0 1 C0 0.67 0 0.34 0 0 Z " fill="#FFFFFF" transform="translate(210,198)"/>
<path d="M0 0 C3.63 0 7.26 0 11 0 C11 0.33 11 0.66 11 1 C7.37 1 3.74 1 0 1 C0 0.67 0 0.34 0 0 Z " fill="#E7B78B" transform="translate(233,231)"/>
<path d="M0 0 C3.3 0.33 6.6 0.66 10 1 C10 1.33 10 1.66 10 2 C3.375 2.25 3.375 2.25 0 0 Z " fill="#E7E7FF" transform="translate(207,225)"/>
<path d="M0 0 C3.63 0 7.26 0 11 0 C11 0.33 11 0.66 11 1 C7.37 1 3.74 1 0 1 C0 0.67 0 0.34 0 0 Z " fill="#FFFFFF" transform="translate(173,195)"/>
<path d="M0 0 C3.3 0 6.6 0 10 0 C10 0.33 10 0.66 10 1 C6.7 1 3.4 1 0 1 C0 0.67 0 0.34 0 0 Z " fill="#FFFFFF" transform="translate(193,193)"/>
<path d="M0 0 C3.3 0 6.6 0 10 0 C10 0.33 10 0.66 10 1 C6.7 1 3.4 1 0 1 C0 0.67 0 0.34 0 0 Z " fill="#7279A1" transform="translate(221,177)"/>
<path d="M0 0 C0.33 0 0.66 0 1 0 C1 3.3 1 6.6 1 10 C0.67 10 0.34 10 0 10 C0 6.7 0 3.4 0 0 Z " fill="#C7C7C7" transform="translate(47,154)"/>
<path d="M0 0 C2.97 0 5.94 0 9 0 C9 0.33 9 0.66 9 1 C6.03 1 3.06 1 0 1 C0 0.67 0 0.34 0 0 Z " fill="#FFFFFF" transform="translate(301,123)"/>
<path d="M0 0 C2.64 0 5.28 0 8 0 C8 0.33 8 0.66 8 1 C5.36 1 2.72 1 0 1 C0 0.67 0 0.34 0 0 Z " fill="#D4FFBF" transform="translate(152,232)"/>
<path d="M0 0 C0.33 0 0.66 0 1 0 C1 2.64 1 5.28 1 8 C0.67 8 0.34 8 0 8 C0 5.36 0 2.72 0 0 Z " fill="#FFFFFF" transform="translate(252,214)"/>
<path d="M0 0 C0.33 0 0.66 0 1 0 C1 2.64 1 5.28 1 8 C0.67 8 0.34 8 0 8 C0 5.36 0 2.72 0 0 Z " fill="#DFCCA7" transform="translate(287,202)"/>
<path d="M0 0 C2.64 0 5.28 0 8 0 C8 0.33 8 0.66 8 1 C5.36 1 2.72 1 0 1 C0 0.67 0 0.34 0 0 Z " fill="#FFFFFF" transform="translate(211,194)"/>
<path d="M0 0 C0.33 0 0.66 0 1 0 C1 2.64 1 5.28 1 8 C0.67 8 0.34 8 0 8 C0 5.36 0 2.72 0 0 Z " fill="#FFBFFF" transform="translate(349,154)"/>
<path d="M0 0 C2.64 0 5.28 0 8 0 C8 0.33 8 0.66 8 1 C5.36 1 2.72 1 0 1 C0 0.67 0 0.34 0 0 Z " fill="#FFFFCF" transform="translate(292,122)"/>
<path d="M0 0 C2.31 0 4.62 0 7 0 C7 0.33 7 0.66 7 1 C4.69 1 2.38 1 0 1 C0 0.67 0 0.34 0 0 Z " fill="#FFFFFF" transform="translate(185,194)"/>
<path d="M0 0 C2.31 0 4.62 0 7 0 C7 0.33 7 0.66 7 1 C4.69 1 2.38 1 0 1 C0 0.67 0 0.34 0 0 Z " fill="#FFFFFF" transform="translate(233,178)"/>
<path d="M0 0 C2.31 0 4.62 0 7 0 C7 0.33 7 0.66 7 1 C4.69 1 2.38 1 0 1 C0 0.67 0 0.34 0 0 Z " fill="#AAAAAA" transform="translate(301,173)"/>
<path d="M0 0 C2.31 0 4.62 0 7 0 C7 0.33 7 0.66 7 1 C4.69 1 2.38 1 0 1 C0 0.67 0 0.34 0 0 Z " fill="#FFFFFF" transform="translate(329,147)"/>
<path d="M0 0 C2.31 0 4.62 0 7 0 C7 0.33 7 0.66 7 1 C4.69 1 2.38 1 0 1 C0 0.67 0 0.34 0 0 Z " fill="#BFFFFF" transform="translate(263,143)"/>
<path d="M0 0 C1.98 0 3.96 0 6 0 C6 0.33 6 0.66 6 1 C4.02 1 2.04 1 0 1 C0 0.67 0 0.34 0 0 Z " fill="#FFFFFF" transform="translate(160,195)"/>
<path d="M0 0 C1.98 0 3.96 0 6 0 C6 0.33 6 0.66 6 1 C4.02 1 2.04 1 0 1 C0 0.67 0 0.34 0 0 Z " fill="#FFFFFF" transform="translate(240,179)"/>
<path d="M0 0 C1.98 0 3.96 0 6 0 C6 0.33 6 0.66 6 1 C4.02 1 2.04 1 0 1 C0 0.67 0 0.34 0 0 Z " fill="#91E9E9" transform="translate(267,165)"/>
<path d="M0 0 C1.98 0 3.96 0 6 0 C6 0.33 6 0.66 6 1 C4.02 1 2.04 1 0 1 C0 0.67 0 0.34 0 0 Z " fill="#B191D4" transform="translate(292,152)"/>
<path d="M0 0 C0.33 0 0.66 0 1 0 C1 1.98 1 3.96 1 6 C0.67 6 0.34 6 0 6 C0 4.02 0 2.04 0 0 Z " fill="#6AE9B4" transform="translate(48,148)"/>
<path d="M0 0 C1.98 0 3.96 0 6 0 C6 0.33 6 0.66 6 1 C4.02 1 2.04 1 0 1 C0 0.67 0 0.34 0 0 Z " fill="#FFFFFF" transform="translate(288,100)"/>
<path d="M0 0 C1.98 0 3.96 0 6 0 C6 0.33 6 0.66 6 1 C4.02 1 2.04 1 0 1 C0 0.67 0 0.34 0 0 Z " fill="#FFFFFF" transform="translate(198,94)"/>
<path d="M0 0 C1.65 0 3.3 0 5 0 C5 0.33 5 0.66 5 1 C3.35 1 1.7 1 0 1 C0 0.67 0 0.34 0 0 Z " fill="#A57B7B" transform="translate(227,230)"/>
<path d="M0 0 C1.65 0 3.3 0 5 0 C5 0.33 5 0.66 5 1 C3.35 1 1.7 1 0 1 C0 0.67 0 0.34 0 0 Z " fill="#FFFFFF" transform="translate(167,196)"/>
<path d="M0 0 C1.65 0 3.3 0 5 0 C5 0.33 5 0.66 5 1 C3.35 1 1.7 1 0 1 C0 0.67 0 0.34 0 0 Z " fill="#FFFFCC" transform="translate(220,195)"/>
<path d="M0 0 C1.65 0 3.3 0 5 0 C5 0.33 5 0.66 5 1 C3.35 1 1.7 1 0 1 C0 0.67 0 0.34 0 0 Z " fill="#FFFFFF" transform="translate(206,193)"/>
<path d="M0 0 C1.65 0 3.3 0 5 0 C5 0.33 5 0.66 5 1 C3.35 1 1.7 1 0 1 C0 0.67 0 0.34 0 0 Z " fill="#FFFFFF" transform="translate(77,189)"/>
<path d="M0 0 C1.65 0 3.3 0 5 0 C5 0.33 5 0.66 5 1 C3.35 1 1.7 1 0 1 C0 0.67 0 0.34 0 0 Z " fill="#FFFFFF" transform="translate(246,180)"/>
<path d="M0 0 C1.65 0 3.3 0 5 0 C5 0.33 5 0.66 5 1 C3.35 1 1.7 1 0 1 C0 0.67 0 0.34 0 0 Z " fill="#FFFFFF" transform="translate(336,146)"/>
<path d="M0 0 C1.65 0 3.3 0 5 0 C5 0.33 5 0.66 5 1 C3.35 1 1.7 1 0 1 C0 0.67 0 0.34 0 0 Z " fill="#FFFFFF" transform="translate(244,143)"/>
<path d="M0 0 C1.65 0 3.3 0 5 0 C5 0.33 5 0.66 5 1 C3.35 1 1.7 1 0 1 C0 0.67 0 0.34 0 0 Z " fill="#FFFFFF" transform="translate(64,10)"/>
<path d="M0 0 C4 1 4 1 4 1 Z " fill="#FFFFFF" transform="translate(217,227)"/>
<path d="M0 0 C1 4 1 4 1 4 Z " fill="#9494AA" transform="translate(132,207)"/>
<path d="M0 0 C1 4 1 4 1 4 Z " fill="#FFFFFF" transform="translate(131,203)"/>
<path d="M0 0 C4 1 4 1 4 1 Z " fill="#BF6AAA" transform="translate(229,200)"/>
<path d="M0 0 C4 1 4 1 4 1 Z " fill="#FFCAFF" transform="translate(206,199)"/>
<path d="M0 0 C4 1 4 1 4 1 Z " fill="#E9AAAA" transform="translate(225,174)"/>
<path d="M0 0 C4 1 4 1 4 1 Z " fill="#FFFFFF" transform="translate(288,170)"/>
<path d="M0 0 C4 1 4 1 4 1 Z " fill="#FFFFFF" transform="translate(280,168)"/>
<path d="M0 0 C1 4 1 4 1 4 Z " fill="#4FFFAF" transform="translate(48,164)"/>
<path d="M0 0 C4 1 4 1 4 1 Z " fill="#8FBF9F" transform="translate(273,166)"/>
<path d="M0 0 C4 1 4 1 4 1 Z " fill="#7FFFFF" transform="translate(300,153)"/>
<path d="M0 0 C4 1 4 1 4 1 Z " fill="#FFFFFF" transform="translate(320,149)"/>
<path d="M0 0 C1 4 1 4 1 4 Z " fill="#D9D9D9" transform="translate(49,144)"/>
<path d="M0 0 C1 4 1 4 1 4 Z " fill="#FFFFFF" transform="translate(29,121)"/>
<path d="M0 0 C4 1 4 1 4 1 Z " fill="#FFFFFF" transform="translate(235,118)"/>
<path d="M0 0 C1 4 1 4 1 4 Z " fill="#B4B475" transform="translate(329,114)"/>
<path d="M0 0 C1 4 1 4 1 4 Z " fill="#FFFFFF" transform="translate(29,115)"/>
<path d="M0 0 C4 1 4 1 4 1 Z " fill="#949455" transform="translate(272,104)"/>
<path d="M0 0 C4 1 4 1 4 1 Z " fill="#FFFFFF" transform="translate(280,102)"/>
<path d="M0 0 C4 1 4 1 4 1 Z " fill="#FFFFFF" transform="translate(284,101)"/>
<path d="M0 0 C4 1 4 1 4 1 Z " fill="#FFFFFF" transform="translate(307,100)"/>
<path d="M0 0 C4 1 4 1 4 1 Z " fill="#FFFFFF" transform="translate(59,11)"/>
<path d="M0 0 C4 1 4 1 4 1 Z " fill="#7A7ABA" transform="translate(115,10)"/>
<path d="M0 0 C3 1 3 1 3 1 Z " fill="#6A6AAA" transform="translate(158,253)"/>
<path d="M0 0 C3 1 3 1 3 1 Z " fill="#787878" transform="translate(141,253)"/>
<path d="M0 0 C3 1 3 1 3 1 Z " fill="#FF6A6A" transform="translate(161,252)"/>
<path d="M0 0 C3 1 3 1 3 1 Z " fill="#FFFFFF" transform="translate(160,231)"/>
<path d="M0 0 C3 1 3 1 3 1 Z " fill="#717171" transform="translate(224,229)"/>
<path d="M0 0 C3 1 3 1 3 1 Z " fill="#787878" transform="translate(221,228)"/>
<path d="" fill="#AAAAAA" transform="translate(0,0)"/>
<path d="" fill="#38388D" transform="translate(0,0)"/>
<path d="" fill="#FFFFFF" transform="translate(0,0)"/>
<path d="M0 0 C3 1 3 1 3 1 Z " fill="#8EFFFF" transform="translate(237,199)"/>
<path d="M0 0 C3 1 3 1 3 1 Z " fill="#AA8EB8" transform="translate(234,198)"/>
<path d="M0 0 C3 1 3 1 3 1 Z " fill="#FFFFFF" transform="translate(156,194)"/>
<path d="M0 0 C3 1 3 1 3 1 Z " fill="#FFFFFF" transform="translate(153,193)"/>
<path d="M0 0 C3 1 3 1 3 1 Z " fill="#FFFFFF" transform="translate(68,187)"/>
<path d="M0 0 C3 1 3 1 3 1 Z " fill="#FFFFFF" transform="translate(331,173)"/>
<path d="M0 0 C3 1 3 1 3 1 Z " fill="#E27171" transform="translate(229,173)"/>
<path d="M0 0 C3 1 3 1 3 1 Z " fill="#FFFFFF" transform="translate(298,172)"/>
<path d="M0 0 C3 1 3 1 3 1 Z " fill="#FFFFFF" transform="translate(98,172)"/>
<path d="M0 0 C3 1 3 1 3 1 Z " fill="#FFFFFF" transform="translate(189,171)"/>
<path d="M0 0 C3 1 3 1 3 1 Z " fill="#FFFFFF" transform="translate(160,170)"/>
<path d="M0 0 C3 1 3 1 3 1 Z " fill="#FFFFFF" transform="translate(284,169)"/>
<path d="M0 0 C3 1 3 1 3 1 Z " fill="#8D8D8D" transform="translate(277,167)"/>
<path d="M0 0 C3 1 3 1 3 1 Z " fill="#787878" transform="translate(247,166)"/>
<path d="" fill="#718D71" transform="translate(0,0)"/>
<path d="M0 0 C3 1 3 1 3 1 Z " fill="#D4D4FF" transform="translate(151,154)"/>
<path d="M0 0 C3 1 3 1 3 1 Z " fill="#FFFFFF" transform="translate(317,150)"/>
<path d="M0 0 C3 1 3 1 3 1 Z " fill="#FFFFFF" transform="translate(341,147)"/>
<path d="M0 0 C3 1 3 1 3 1 Z " fill="#95FFFF" transform="translate(238,145)"/>
<path d="M0 0 C3 1 3 1 3 1 Z " fill="#AAAAAA" transform="translate(270,144)"/>
<path d="M0 0 C3 1 3 1 3 1 Z " fill="#8DAAAA" transform="translate(241,144)"/>
<path d="M0 0 C3 1 3 1 3 1 Z " fill="#FFFFFF" transform="translate(273,122)"/>
<path d="" fill="#FFFFFF" transform="translate(0,0)"/>
<path d="" fill="#FFFFFF" transform="translate(0,0)"/>
<path d="" fill="#FFFFFF" transform="translate(0,0)"/>
<path d="" fill="#FFFFFF" transform="translate(0,0)"/>
<path d="" fill="#FFFFFF" transform="translate(0,0)"/>
<path d="" fill="#FFFFFF" transform="translate(0,0)"/>
<path d="M0 0 C3 1 3 1 3 1 Z " fill="#D4D4D4" transform="translate(44,16)"/>
<path d="M0 0 C3 1 3 1 3 1 Z " fill="#FFFFFF" transform="translate(123,12)"/>
<path d="M0 0 C2 1 2 1 2 1 Z " fill="#FFFFFF" transform="translate(139,252)"/>
<path d="" fill="#555555" transform="translate(0,0)"/>
<path d="" fill="#FFFFFF" transform="translate(0,0)"/>
<path d="M0 0 C2 1 2 1 2 1 Z " fill="#FFFFFF" transform="translate(163,230)"/>
<path d="M0 0 C2 1 2 1 2 1 Z " fill="#FFFFFF" transform="translate(147,230)"/>
<path d="" fill="#FFFFFF" transform="translate(0,0)"/>
<path d="" fill="#FFFFFF" transform="translate(0,0)"/>
<path d="" fill="#D4D4D4" transform="translate(0,0)"/>
<path d="" fill="#FFFFFF" transform="translate(0,0)"/>
<path d="" fill="#FFFFFF" transform="translate(0,0)"/>
<path d="" fill="#95BFBF" transform="translate(0,0)"/>
<path d="" fill="#FFFFFF" transform="translate(0,0)"/>
<path d="" fill="#959595" transform="translate(0,0)"/>
<path d="" fill="#555555" transform="translate(0,0)"/>
<path d="" fill="#FFFF5F" transform="translate(0,0)"/>
<path d="" fill="#959595" transform="translate(0,0)"/>
<path d="" fill="#FFFFFF" transform="translate(0,0)"/>
<path d="" fill="#FFFFFF" transform="translate(0,0)"/>
<path d="" fill="#FFD4FF" transform="translate(0,0)"/>
<path d="" fill="#55557F" transform="translate(0,0)"/>
<path d="" fill="#808080" transform="translate(0,0)"/>
<path d="" fill="#5FFF5F" transform="translate(0,0)"/>
<path d="M0 0 C2 1 2 1 2 1 Z " fill="#FF55FF" transform="translate(236,202)"/>
<path d="M0 0 C2 1 2 1 2 1 Z " fill="#FFFFFF" transform="translate(198,202)"/>
<path d="" fill="#BFFFBF" transform="translate(0,0)"/>
<path d="" fill="#FFFFFF" transform="translate(0,0)"/>
<path d="" fill="#FFBFFF" transform="translate(0,0)"/>
<path d="" fill="#BFBFBF" transform="translate(0,0)"/>
<path d="M0 0 C2 1 2 1 2 1 Z " fill="#FFFFFF" transform="translate(204,194)"/>
<path d="" fill="#555555" transform="translate(0,0)"/>
<path d="M0 0 C2 1 2 1 2 1 Z " fill="#FFFFFF" transform="translate(151,192)"/>
<path d="M0 0 C2 1 2 1 2 1 Z " fill="#AAAAFF" transform="translate(149,191)"/>
<path d="M0 0 C2 1 2 1 2 1 Z " fill="#D4D4D4" transform="translate(147,190)"/>
<path d="" fill="#D45555" transform="translate(0,0)"/>
<path d="M0 0 C2 1 2 1 2 1 Z " fill="#FFFFFF" transform="translate(66,186)"/>
<path d="" fill="#000000" transform="translate(0,0)"/>
<path d="M0 0 C2 1 2 1 2 1 Z " fill="#FFFFFF" transform="translate(101,173)"/>
<path d="" fill="#555555" transform="translate(0,0)"/>
<path d="M0 0 C2 1 2 1 2 1 Z " fill="#FFAAAA" transform="translate(232,172)"/>
<path d="M0 0 C2 1 2 1 2 1 Z " fill="#FFFFFF" transform="translate(337,171)"/>
<path d="" fill="#959595" transform="translate(0,0)"/>
<path d="" fill="#D45555" transform="translate(0,0)"/>
<path d="" fill="#9FFF9F" transform="translate(0,0)"/>
<path d="M0 0 C2 1 2 1 2 1 Z " fill="#FFFFFF" transform="translate(151,166)"/>
<path d="" fill="#FFFFFF" transform="translate(0,0)"/>
<path d="" fill="#FF40FF" transform="translate(0,0)"/>
<path d="" fill="#FFFFFF" transform="translate(0,0)"/>
<path d="M0 0 C2 1 2 1 2 1 Z " fill="#959595" transform="translate(273,145)"/>
<path d="" fill="#FFFFFF" transform="translate(0,0)"/>
<path d="M0 0 C2 1 2 1 2 1 Z " fill="#95FFFF" transform="translate(46,140)"/>
<path d="M0 0 C2 1 2 1 2 1 Z " fill="#D4D4FF" transform="translate(246,133)"/>
<path d="M0 0 C2 1 2 1 2 1 Z " fill="#FFFFFF" transform="translate(248,132)"/>
<path d="M0 0 C2 1 2 1 2 1 Z " fill="#FFFFFF" transform="translate(250,131)"/>
<path d="M0 0 C2 1 2 1 2 1 Z " fill="#FFFFFF" transform="translate(252,130)"/>
<path d="M0 0 C2 1 2 1 2 1 Z " fill="#FFFFFF" transform="translate(254,129)"/>
<path d="" fill="#40BF40" transform="translate(0,0)"/>
<path d="" fill="#FFFF55" transform="translate(0,0)"/>
<path d="" fill="#FFFFFF" transform="translate(0,0)"/>
<path d="M0 0 C2 1 2 1 2 1 Z " fill="#FFFFFF" transform="translate(243,116)"/>
<path d="" fill="#FFFF55" transform="translate(0,0)"/>
<path d="" fill="#959595" transform="translate(0,0)"/>
<path d="M0 0 C2 1 2 1 2 1 Z " fill="#FFFFFF" transform="translate(262,108)"/>
<path d="M0 0 C2 1 2 1 2 1 Z " fill="#9F9F9F" transform="translate(264,107)"/>
<path d="" fill="#FFFFFF" transform="translate(0,0)"/>
<path d="" fill="#FFFFFF" transform="translate(0,0)"/>
<path d="M0 0 C2 1 2 1 2 1 Z " fill="#FFFFFF" transform="translate(314,102)"/>
<path d="" fill="#FFFFFF" transform="translate(0,0)"/>
<path d="" fill="#BFBF40" transform="translate(0,0)"/>
<path d="" fill="#555555" transform="translate(0,0)"/>
<path d="" fill="#555555" transform="translate(0,0)"/>
<path d="" fill="#959595" transform="translate(0,0)"/>
<path d="" fill="#FFFFFF" transform="translate(0,0)"/>
<path d="" fill="#555555" transform="translate(0,0)"/>
<path d="" fill="#D4FFFF" transform="translate(0,0)"/>
<path d="" fill="#FFFFFF" transform="translate(0,0)"/>
<path d="" fill="#FFFF80" transform="translate(0,0)"/>
<path d="" fill="#FFFF40" transform="translate(0,0)"/>
<path d="" fill="#BFBFBF" transform="translate(0,0)"/>
<path d="" fill="#FFFFFF" transform="translate(0,0)"/>
<path d="" fill="#FFFFFF" transform="translate(0,0)"/>
<path d="" fill="#FFFFFF" transform="translate(0,0)"/>
<path d="" fill="#404040" transform="translate(0,0)"/>
<path d="" fill="#555555" transform="translate(0,0)"/>
<path d="" fill="#D4D4D4" transform="translate(0,0)"/>
<path d="" fill="#FFFFFF" transform="translate(0,0)"/>
<path d="" fill="#FFFFFF" transform="translate(0,0)"/>
<path d="M0 0 C2 1 2 1 2 1 Z " fill="#959595" transform="translate(152,25)"/>
<path d="M0 0 C2 1 2 1 2 1 Z " fill="#AAAAAA" transform="translate(42,17)"/>
<path d="" fill="#AAAAAA" transform="translate(0,0)"/>
<path d="" fill="#FFFFFF" transform="translate(0,0)"/>
<path d="" fill="#FFFFFF" transform="translate(0,0)"/>
<path d="" fill="#FFFFFF" transform="translate(0,0)"/>
<path d="" fill="#FFBFBF" transform="translate(0,0)"/>
<path d="" fill="#FFFFFF" transform="translate(0,0)"/>
<path d="" fill="#FFFFFF" transform="translate(0,0)"/>
<path d="" fill="#FFFFFF" transform="translate(0,0)"/>
<path d="" fill="#FFAAFF" transform="translate(0,0)"/>
<path d="" fill="#FFBFFF" transform="translate(0,0)"/>
<path d="" fill="#BFBFBF" transform="translate(0,0)"/>
<path d="" fill="#808080" transform="translate(0,0)"/>
<path d="" fill="#FFBFFF" transform="translate(0,0)"/>
<path d="" fill="#FFFFFF" transform="translate(0,0)"/>
<path d="" fill="#FFFFFF" transform="translate(0,0)"/>
<path d="" fill="#FF8080" transform="translate(0,0)"/>
<path d="" fill="#FFFFFF" transform="translate(0,0)"/>
<path d="" fill="#FFFFFF" transform="translate(0,0)"/>
<path d="" fill="#BFBFBF" transform="translate(0,0)"/>
<path d="" fill="#FFFFAA" transform="translate(0,0)"/>
<path d="" fill="#FFFFFF" transform="translate(0,0)"/>
<path d="" fill="#808080" transform="translate(0,0)"/>
<path d="" fill="#AAFFAA" transform="translate(0,0)"/>
<path d="" fill="#FFFFFF" transform="translate(0,0)"/>
<path d="" fill="#FFFFBF" transform="translate(0,0)"/>
<path d="" fill="#FFFFFF" transform="translate(0,0)"/>
<path d="" fill="#FFFFFF" transform="translate(0,0)"/>
<path d="" fill="#BFBFBF" transform="translate(0,0)"/>
<path d="" fill="#BFBFBF" transform="translate(0,0)"/>
<path d="" fill="#FFFFAA" transform="translate(0,0)"/>
<path d="" fill="#BFBFBF" transform="translate(0,0)"/>
<path d="" fill="#BFBFBF" transform="translate(0,0)"/>
<path d="" fill="#BFBFBF" transform="translate(0,0)"/>
<path d="" fill="#FFFFAA" transform="translate(0,0)"/>
<path d="" fill="#FFFFFF" transform="translate(0,0)"/>
<path d="" fill="#FFFFFF" transform="translate(0,0)"/>
<path d="" fill="#FFFFFF" transform="translate(0,0)"/>
<path d="" fill="#FFFFFF" transform="translate(0,0)"/>
<path d="" fill="#FFFFFF" transform="translate(0,0)"/>
<path d="" fill="#000000" transform="translate(0,0)"/>
<path d="" fill="#AAAAAA" transform="translate(0,0)"/>
<path d="" fill="#FFFFFF" transform="translate(0,0)"/>
<path d="" fill="#FFFFFF" transform="translate(0,0)"/>
<path d="" fill="#FFFFAA" transform="translate(0,0)"/>
<path d="" fill="#FFFFBF" transform="translate(0,0)"/>
<path d="" fill="#AAAAAA" transform="translate(0,0)"/>
<path d="" fill="#AAFFAA" transform="translate(0,0)"/>
<path d="" fill="#AAAAAA" transform="translate(0,0)"/>
<path d="" fill="#FFFFFF" transform="translate(0,0)"/>
<path d="" fill="#FFFFFF" transform="translate(0,0)"/>
<path d="" fill="#AAAAAA" transform="translate(0,0)"/>
<path d="" fill="#FF80FF" transform="translate(0,0)"/>
<path d="" fill="#FFFFFF" transform="translate(0,0)"/>
<path d="" fill="#FFAAFF" transform="translate(0,0)"/>
<path d="" fill="#FFBFFF" transform="translate(0,0)"/>
<path d="" fill="#FFFFFF" transform="translate(0,0)"/>
<path d="" fill="#FFFFFF" transform="translate(0,0)"/>
<path d="" fill="#FFAAFF" transform="translate(0,0)"/>
<path d="" fill="#FFFFFF" transform="translate(0,0)"/>
<path d="" fill="#FFFFFF" transform="translate(0,0)"/>
<path d="" fill="#FFFFFF" transform="translate(0,0)"/>
<path d="" fill="#FFAAFF" transform="translate(0,0)"/>
<path d="" fill="#FFBFBF" transform="translate(0,0)"/>
<path d="" fill="#BFBFBF" transform="translate(0,0)"/>
<path d="" fill="#AAAAAA" transform="translate(0,0)"/>
<path d="" fill="#808080" transform="translate(0,0)"/>
<path d="" fill="#FF8080" transform="translate(0,0)"/>
<path d="" fill="#FFFFFF" transform="translate(0,0)"/>
<path d="" fill="#FFAAFF" transform="translate(0,0)"/>
<path d="" fill="#FFAAFF" transform="translate(0,0)"/>
<path d="" fill="#FF80FF" transform="translate(0,0)"/>
<path d="" fill="#FFFFFF" transform="translate(0,0)"/>
<path d="" fill="#FFFFFF" transform="translate(0,0)"/>
<path d="" fill="#FFFFFF" transform="translate(0,0)"/>
<path d="" fill="#FFFFFF" transform="translate(0,0)"/>
<path d="" fill="#FFFFFF" transform="translate(0,0)"/>
<path d="" fill="#FFFF80" transform="translate(0,0)"/>
<path d="" fill="#FFFFFF" transform="translate(0,0)"/>
<path d="" fill="#FFFFFF" transform="translate(0,0)"/>
<path d="" fill="#FFFFFF" transform="translate(0,0)"/>
<path d="" fill="#FFFFFF" transform="translate(0,0)"/>
<path d="" fill="#FFFFFF" transform="translate(0,0)"/>
<path d="" fill="#AAFFAA" transform="translate(0,0)"/>
<path d="" fill="#BFBFFF" transform="translate(0,0)"/>
<path d="" fill="#BFBFBF" transform="translate(0,0)"/>
<path d="" fill="#FFAAAA" transform="translate(0,0)"/>
<path d="" fill="#FFAAAA" transform="translate(0,0)"/>
<path d="" fill="#AAFFAA" transform="translate(0,0)"/>
<path d="" fill="#FFFFFF" transform="translate(0,0)"/>
<path d="" fill="#FFFFFF" transform="translate(0,0)"/>
<path d="" fill="#FFFF80" transform="translate(0,0)"/>
<path d="" fill="#FFFF80" transform="translate(0,0)"/>
<path d="" fill="#AAAAAA" transform="translate(0,0)"/>
<path d="" fill="#FFFFFF" transform="translate(0,0)"/>
<path d="" fill="#AAAAAA" transform="translate(0,0)"/>
<path d="" fill="#FFFFFF" transform="translate(0,0)"/>
<path d="" fill="#AAAAAA" transform="translate(0,0)"/>
<path d="" fill="#FFFFFF" transform="translate(0,0)"/>
<path d="" fill="#BFBFBF" transform="translate(0,0)"/>
<path d="" fill="#FFFFFF" transform="translate(0,0)"/>
<path d="" fill="#AAAAAA" transform="translate(0,0)"/>
<path d="" fill="#FFFFFF" transform="translate(0,0)"/>
<path d="" fill="#FFFFFF" transform="translate(0,0)"/>
<path d="" fill="#FFFFFF" transform="translate(0,0)"/>
<path d="" fill="#FFFFFF" transform="translate(0,0)"/>
<path d="" fill="#FFFFFF" transform="translate(0,0)"/>
<path d="" fill="#FFFFFF" transform="translate(0,0)"/>
<path d="" fill="#FFFFFF" transform="translate(0,0)"/>
<path d="" fill="#FFFFFF" transform="translate(0,0)"/>
<path d="" fill="#BFBFBF" transform="translate(0,0)"/>
<path d="" fill="#AAAAAA" transform="translate(0,0)"/>
<path d="" fill="#AAAAAA" transform="translate(0,0)"/>
<path d="" fill="#FFFFFF" transform="translate(0,0)"/>
<path d="" fill="#FFFFFF" transform="translate(0,0)"/>
<path d="" fill="#FFFFFF" transform="translate(0,0)"/>
<path d="" fill="#FFFFFF" transform="translate(0,0)"/>
<path d="" fill="#FFAAFF" transform="translate(0,0)"/>
<path d="" fill="#FFFFFF" transform="translate(0,0)"/>
<path d="" fill="#BFBFBF" transform="translate(0,0)"/>
<path d="" fill="#FFFFFF" transform="translate(0,0)"/>
<path d="" fill="#FFFFFF" transform="translate(0,0)"/>
<path d="" fill="#BFBFBF" transform="translate(0,0)"/>
<path d="" fill="#AAAAAA" transform="translate(0,0)"/>
<path d="" fill="#FFFFFF" transform="translate(0,0)"/>
<path d="" fill="#FFFFFF" transform="translate(0,0)"/>
<path d="" fill="#AAFFAA" transform="translate(0,0)"/>
<path d="" fill="#FFFFFF" transform="translate(0,0)"/>
<path d="" fill="#FFFFFF" transform="translate(0,0)"/>
<path d="" fill="#FFFFFF" transform="translate(0,0)"/>
<path d="" fill="#FFFFFF" transform="translate(0,0)"/>
</svg>
